<svg width="40" height="40" viewBox="0 0 40 40" fill="none" xmlns="http://www.w3.org/2000/svg">
<path d="M16.4436 21.2762C9.86618 22.329 3.56279 28.4413 1.23327 31.3659C6.49523 32.7697 7.2626 33.8518 6.98854 34.2173C5.83749 34.2173 1.84991 35.6796 0 36.4108L9.66063 37.0688C13.6071 36.7178 15.1418 31.6584 15.4159 29.1725C39.9169 25.663 41.5202 15.1346 39.2592 10.3091C39.0947 17.679 32.7502 18.9365 29.5985 18.6441C29.2697 18.2931 30.9688 16.1582 31.8595 15.1346C29.53 15.3539 24.5421 15.7926 23.2266 15.7926C21.9111 15.7926 19.8009 14.769 18.9102 14.2572L16.4436 21.2762Z" fill="#7B8F9E"/>
<path d="M39.6703 19.0828C33.2984 28.9531 16.8547 30.0499 16.4436 30.0499C16.4436 33.5593 13.8401 36.1914 12.5383 37.0688C32.7639 38.4726 39.0536 25.663 39.6703 19.0828Z" fill="#7B8F9E"/>
<path d="M29.5985 34.8754C28.283 36.1037 25.6247 36.8495 24.4599 37.0688C25.6932 38.2386 28.2008 40.4467 28.3653 39.9202C28.5297 39.3938 32.4077 35.899 34.3261 34.2173L29.5985 34.8754Z" fill="#7B8F9E"/>
<path d="M38.2314 11.4058C37.821 9.50777 34.7468 6.37069 25.7353 8.98078C25.7213 8.98518 25.7073 8.98926 25.6932 8.99302C25.7072 8.98893 25.7213 8.98485 25.7353 8.98078C26.8099 8.64308 27.5555 6.40905 22.1989 0C28.2967 1.60851 40.0402 6.14157 38.2314 11.4058Z" fill="#7B8F9E"/>
</svg>
