<svg width="23" height="34" viewBox="0 0 23 34" fill="none" xmlns="http://www.w3.org/2000/svg">
<rect x="11" y="25" width="2" height="9" fill="#17C1BC"/>
<path d="M22.5 12.8921C22.5 19.6462 17.5315 25.0386 11.5 25.0386C5.46852 25.0386 0.5 19.6462 0.5 12.8921C0.5 6.13799 5.46852 0.745605 11.5 0.745605C17.5315 0.745605 22.5 6.13799 22.5 12.8921Z" stroke="#17C1BC"/>
<g clip-path="url(#clip0)">
<path d="M7.16229 16.1219H7.15978C7.03147 16.1219 6.92871 16.2602 6.92871 16.4307C6.92871 16.6012 7.03398 16.7395 7.16229 16.7395C7.2906 16.7395 7.39462 16.6012 7.39462 16.4307C7.39462 16.2602 7.2906 16.1219 7.16229 16.1219Z" fill="#17C1BC"/>
<path d="M9.14959 16.1219H9.14711C9.0188 16.1219 8.91602 16.2602 8.91602 16.4307C8.91602 16.6012 9.02128 16.7395 9.14959 16.7395C9.2779 16.7395 9.38193 16.6012 9.38193 16.4307C9.38193 16.2602 9.2779 16.1219 9.14959 16.1219Z" fill="#17C1BC"/>
<path d="M17.343 16.1219H17.3405C17.2122 16.1219 17.1094 16.2602 17.1094 16.4307C17.1094 16.6012 17.2146 16.7395 17.343 16.7395C17.4713 16.7395 17.5753 16.6012 17.5753 16.4307C17.5753 16.2602 17.4713 16.1219 17.343 16.1219Z" fill="#17C1BC"/>
<path d="M19.8427 12.3889L19.5303 11.9738L18.901 9.46482C18.9949 9.42517 19.0629 9.30846 19.0629 9.1706C19.0629 9.00008 18.9589 8.86184 18.8306 8.86184H16.5797V7.52071C16.5797 7.16848 16.3641 6.88196 16.099 6.88196H4.67597C4.41092 6.88196 4.19531 7.16852 4.19531 7.52071V14.7807C4.19531 15.1329 4.41092 15.4194 4.67597 15.4194H4.94028V16.1005C4.94028 16.4527 5.15589 16.7392 5.42094 16.7392H5.95596C6.06488 17.4901 6.56286 18.0592 7.15922 18.0592C7.56758 18.0592 7.92968 17.7922 8.15251 17.3829C8.37537 17.7922 8.73747 18.0592 9.14583 18.0592C9.74219 18.0592 10.2402 17.4901 10.3491 16.7392H16.1373C16.2462 17.4901 16.7442 18.0592 17.3406 18.0592C18.0164 18.0592 18.5662 17.3285 18.5662 16.4305C18.5662 16.4234 18.5659 16.4164 18.5658 16.4094H19.5755C19.8406 16.4094 20.0562 16.1229 20.0562 15.7707V13.0739C20.0562 12.8152 19.9804 12.5719 19.8427 12.3889ZM5.95596 16.1218H5.42094C5.41211 16.1218 5.40495 16.1123 5.40495 16.1005V15.4195H6.19939C6.0792 15.6206 5.99391 15.86 5.95596 16.1218ZM7.15922 17.4418C6.73962 17.4418 6.39827 16.9881 6.39827 16.4306C6.39827 15.8751 6.73708 15.4229 7.15448 15.4195H7.16402C7.58143 15.4229 7.92024 15.8751 7.92024 16.4306C7.9202 16.9881 7.57882 17.4418 7.15922 17.4418ZM9.14586 17.4418C8.72626 17.4418 8.38488 16.9881 8.38488 16.4306C8.38488 15.8751 8.72369 15.4229 9.14109 15.4195H9.15063C9.56803 15.4229 9.90684 15.8751 9.90684 16.4306C9.90681 16.9881 9.56546 17.4418 9.14586 17.4418ZM16.1374 16.1218H10.3491C10.3112 15.86 10.2259 15.6206 10.1057 15.4194H14.609C14.7373 15.4194 14.8413 15.2812 14.8413 15.1107C14.8413 14.9402 14.7373 14.8019 14.609 14.8019H4.67597C4.66714 14.8019 4.65999 14.7924 4.65999 14.7807V7.52071C4.65999 7.50897 4.66714 7.49946 4.67597 7.49946H16.099C16.1078 7.49946 16.115 7.50897 16.115 7.52071V14.802H15.6024C15.4741 14.802 15.3701 14.9402 15.3701 15.1107C15.3701 15.2812 15.4741 15.4195 15.6024 15.4195H16.3808C16.2606 15.6206 16.1753 15.86 16.1374 16.1218ZM19.0876 12.1618H17.5889C17.5801 12.1618 17.5729 12.1523 17.5729 12.1405V10.7993H18.7459L19.0876 12.1618ZM17.3406 17.4418C16.921 17.4418 16.5797 16.9881 16.5797 16.4306C16.5797 15.8751 16.9185 15.4229 17.3359 15.4195H17.3406C17.3412 15.4195 17.3417 15.4194 17.3423 15.4193C17.7611 15.4205 18.1016 15.8737 18.1016 16.4305C18.1016 16.9881 17.7602 17.4418 17.3406 17.4418ZM19.5915 15.7707C19.5915 15.7825 19.5844 15.792 19.5755 15.792H18.468C18.2807 15.2104 17.846 14.8018 17.3406 14.8018C17.339 14.8018 17.3375 14.802 17.3358 14.802H16.5797V9.50071V9.50055C16.5797 9.48882 16.5868 9.47931 16.5956 9.47931H18.4148L18.591 10.1818H17.3406C17.2123 10.1818 17.1083 10.32 17.1083 10.4905V12.1405C17.1083 12.4928 17.3239 12.7793 17.5889 12.7793H19.4793L19.5141 12.8256C19.564 12.8919 19.5915 12.9801 19.5915 13.0739V13.812H19.3272C19.1989 13.812 19.0949 13.9502 19.0949 14.1207C19.0949 14.2912 19.1989 14.4295 19.3272 14.4295H19.5915V15.7707Z" fill="#17C1BC"/>
<path d="M15.3539 13.4822H5.42081C5.2925 13.4822 5.18848 13.6204 5.18848 13.7909C5.18848 13.9614 5.2925 14.0997 5.42081 14.0997H15.3539C15.4822 14.0997 15.5862 13.9614 15.5862 13.7909C15.5862 13.6204 15.4822 13.4822 15.3539 13.4822Z" fill="#17C1BC"/>
</g>
<path d="M23 12.6465C23 19.6309 17.8513 25.293 11.5 25.293C5.14873 25.293 0 19.6309 0 12.6465C0 5.66202 5.14873 0 11.5 0C17.8513 0 23 5.66202 23 12.6465Z" fill="#17C1BC"/>
<g clip-path="url(#clip1)">
<path d="M7.16229 15.8763H7.15978C7.03147 15.8763 6.92871 16.0146 6.92871 16.1851C6.92871 16.3556 7.03398 16.4938 7.16229 16.4938C7.2906 16.4938 7.39462 16.3556 7.39462 16.1851C7.39462 16.0146 7.2906 15.8763 7.16229 15.8763Z" fill="white"/>
<path d="M9.14959 15.8763H9.14711C9.0188 15.8763 8.91602 16.0146 8.91602 16.1851C8.91602 16.3556 9.02128 16.4938 9.14959 16.4938C9.2779 16.4938 9.38193 16.3556 9.38193 16.1851C9.38193 16.0146 9.2779 15.8763 9.14959 15.8763Z" fill="white"/>
<path d="M17.343 15.8763H17.3405C17.2122 15.8763 17.1094 16.0146 17.1094 16.1851C17.1094 16.3556 17.2146 16.4938 17.343 16.4938C17.4713 16.4938 17.5753 16.3556 17.5753 16.1851C17.5753 16.0146 17.4713 15.8763 17.343 15.8763Z" fill="white"/>
<path d="M19.8427 12.1433L19.5303 11.7282L18.901 9.21921C18.9949 9.17957 19.0629 9.06286 19.0629 8.92499C19.0629 8.75448 18.9589 8.61624 18.8306 8.61624H16.5797V7.2751C16.5797 6.92287 16.3641 6.63635 16.099 6.63635H4.67597C4.41092 6.63635 4.19531 6.92292 4.19531 7.2751V14.5351C4.19531 14.8873 4.41092 15.1738 4.67597 15.1738H4.94028V15.8549C4.94028 16.2071 5.15589 16.4936 5.42094 16.4936H5.95596C6.06488 17.2445 6.56286 17.8136 7.15922 17.8136C7.56758 17.8136 7.92968 17.5466 8.15251 17.1373C8.37537 17.5466 8.73747 17.8136 9.14583 17.8136C9.74219 17.8136 10.2402 17.2445 10.3491 16.4936H16.1373C16.2462 17.2445 16.7442 17.8136 17.3406 17.8136C18.0164 17.8136 18.5662 17.0829 18.5662 16.1849C18.5662 16.1778 18.5659 16.1708 18.5658 16.1638H19.5755C19.8406 16.1638 20.0562 15.8773 20.0562 15.525V12.8283C20.0562 12.5695 19.9804 12.3263 19.8427 12.1433ZM5.95596 15.8762H5.42094C5.41211 15.8762 5.40495 15.8667 5.40495 15.8549V15.1739H6.19939C6.0792 15.375 5.99391 15.6144 5.95596 15.8762ZM7.15922 17.1962C6.73962 17.1962 6.39827 16.7425 6.39827 16.185C6.39827 15.6295 6.73708 15.1773 7.15448 15.1739H7.16402C7.58143 15.1773 7.92024 15.6294 7.92024 16.185C7.9202 16.7425 7.57882 17.1962 7.15922 17.1962ZM9.14586 17.1962C8.72626 17.1962 8.38488 16.7425 8.38488 16.185C8.38488 15.6295 8.72369 15.1773 9.14109 15.1739H9.15063C9.56803 15.1773 9.90684 15.6294 9.90684 16.185C9.90681 16.7425 9.56546 17.1962 9.14586 17.1962ZM16.1374 15.8762H10.3491C10.3112 15.6144 10.2259 15.375 10.1057 15.1738H14.609C14.7373 15.1738 14.8413 15.0356 14.8413 14.8651C14.8413 14.6945 14.7373 14.5563 14.609 14.5563H4.67597C4.66714 14.5563 4.65999 14.5468 4.65999 14.5351V7.2751C4.65999 7.26337 4.66714 7.25386 4.67597 7.25386H16.099C16.1078 7.25386 16.115 7.26337 16.115 7.2751V14.5563H15.6024C15.4741 14.5563 15.3701 14.6946 15.3701 14.8651C15.3701 15.0356 15.4741 15.1739 15.6024 15.1739H16.3808C16.2606 15.375 16.1753 15.6144 16.1374 15.8762ZM19.0876 11.9162H17.5889C17.5801 11.9162 17.5729 11.9067 17.5729 11.8949V10.5537H18.7459L19.0876 11.9162ZM17.3406 17.1962C16.921 17.1962 16.5797 16.7425 16.5797 16.185C16.5797 15.6295 16.9185 15.1773 17.3359 15.1739H17.3406C17.3412 15.1739 17.3417 15.1738 17.3423 15.1737C17.7611 15.1749 18.1016 15.628 18.1016 16.1849C18.1016 16.7425 17.7602 17.1962 17.3406 17.1962ZM19.5915 15.5251C19.5915 15.5369 19.5844 15.5464 19.5755 15.5464H18.468C18.2807 14.9648 17.846 14.5562 17.3406 14.5562C17.339 14.5562 17.3375 14.5564 17.3358 14.5564H16.5797V9.25511V9.25494C16.5797 9.24321 16.5868 9.2337 16.5956 9.2337H18.4148L18.591 9.93618H17.3406C17.2123 9.93618 17.1083 10.0744 17.1083 10.2449V11.8949C17.1083 12.2472 17.3239 12.5337 17.5889 12.5337H19.4793L19.5141 12.58C19.564 12.6463 19.5915 12.7345 19.5915 12.8283V13.5664H19.3272C19.1989 13.5664 19.0949 13.7046 19.0949 13.8751C19.0949 14.0456 19.1989 14.1839 19.3272 14.1839H19.5915V15.5251Z" fill="white"/>
<path d="M15.3539 13.2366H5.42081C5.2925 13.2366 5.18848 13.3748 5.18848 13.5453C5.18848 13.7158 5.2925 13.8541 5.42081 13.8541H15.3539C15.4822 13.8541 15.5862 13.7158 15.5862 13.5453C15.5862 13.3748 15.4822 13.2366 15.3539 13.2366Z" fill="white"/>
</g>
<defs>
<clipPath id="clip0">
<rect width="15.8609" height="21.0775" fill="white" transform="translate(4.19531 1.93201)"/>
</clipPath>
<clipPath id="clip1">
<rect width="15.8609" height="21.0775" fill="white" transform="translate(4.19531 1.6864)"/>
</clipPath>
</defs>
</svg>
