<svg width="15" height="15" viewBox="0 0 15 15" fill="none" xmlns="http://www.w3.org/2000/svg">
<path d="M13.6355 1.41331H9.60393V0.701807C9.60393 0.314824 9.28955 0 8.90315 0H6.09695C5.71052 0 5.39617 0.314824 5.39617 0.701807V1.41328H1.36459C1.16962 1.41328 1.0116 1.57131 1.0116 1.76628C1.0116 1.96125 1.16962 2.11928 1.36459 2.11928H2.01885L2.46499 13.7324C2.49229 14.4432 3.07087 15 3.78223 15H11.2179C11.9293 15 12.5078 14.4432 12.5351 13.7324L12.9812 2.11925H13.6355C13.8304 2.11925 13.9885 1.96122 13.9885 1.76625C13.9885 1.57134 13.8304 1.41331 13.6355 1.41331ZM6.10213 0.705967H8.89793V1.41328H6.10213V0.705967ZM11.8296 13.7053C11.817 14.0355 11.5482 14.294 11.2179 14.294H3.78223C3.45188 14.294 3.18317 14.0354 3.17045 13.7053L2.72538 2.11928H12.2747L11.8296 13.7053Z" fill="#5F5F5F"/>
<path d="M5.35051 5.31983C5.34679 5.12721 5.18955 4.97363 4.99772 4.97363C4.99543 4.97363 4.99309 4.97363 4.9908 4.97369C4.79592 4.97744 4.64091 5.13852 4.64466 5.3334L4.75543 11.0942C4.75912 11.2868 4.91642 11.4404 5.10822 11.4404C5.11051 11.4404 5.11285 11.4404 5.11514 11.4403C5.31005 11.4366 5.46503 11.2755 5.46128 11.0806L5.35051 5.31983Z" fill="#5F5F5F"/>
<path d="M7.49997 4.97314C7.30503 4.97314 7.14697 5.13117 7.14697 5.32614V11.0869C7.14697 11.2818 7.305 11.4399 7.49997 11.4399C7.69494 11.4399 7.85297 11.2819 7.85297 11.0869V5.32614C7.85297 5.1312 7.69494 4.97314 7.49997 4.97314Z" fill="#5F5F5F"/>
<path d="M10.0091 4.97323C9.81488 4.96893 9.65307 5.12446 9.64935 5.31937L9.53858 11.0801C9.5348 11.275 9.68981 11.4361 9.88473 11.4398C9.88701 11.4399 9.88935 11.4399 9.89164 11.4399C10.0834 11.4399 10.2407 11.2863 10.2444 11.0937L10.3552 5.33294C10.359 5.138 10.204 4.97695 10.0091 4.97323Z" fill="#5F5F5F"/>
</svg>
