<svg width="30" height="30" viewBox="0 0 30 30" fill="none" xmlns="http://www.w3.org/2000/svg">
<path d="M28.0806 0H27.0103C25.952 0 25.0909 0.952349 25.0909 2.12291V3.18386C24.3816 3.43828 4.21738 10.6672 3.56415 10.9014L1.15356 9.95815C0.591431 9.73841 0 10.2002 0 10.8599V19.1401C0 19.8031 0.594635 20.2606 1.15356 20.0421L3.56415 19.0986L4.7802 19.5345V25.1527C4.7802 27.0204 6.15395 28.5398 7.84264 28.5398H12.8906C13.1332 28.5398 12.4509 28.3221 12.4509 28.0538C12.4509 27.7852 13.1332 27.5677 12.8906 27.5677H7.84264C6.63872 27.5677 5.6591 26.4843 5.6591 25.1527V19.8497L6.37962 20.1079V25.1527C6.37962 26.045 7.03583 26.7711 7.84264 26.7711H16.7986C17.6054 26.7711 18.2616 26.045 18.2616 25.1527V24.3677C18.7862 24.5558 18.636 24.5021 18.9819 24.6259V25.1527C18.9819 26.4843 18.0025 27.5677 16.7986 27.5677H12.8906C12.6478 27.5677 12.4509 27.7852 12.4509 28.0538C12.4509 28.3221 12.6478 28.5398 12.8906 28.5398H16.7986C18.487 28.5398 19.8608 27.0204 19.8608 25.1527V24.9411L25.0912 26.8161V27.8773C25.0912 29.0479 25.952 30 27.0103 30H28.0808C29.1392 30 30 29.0479 30 27.8773V16.1342C30 15.8656 29.8034 15.6482 29.5605 15.6482C29.3177 15.6482 29.1211 15.8656 29.1211 16.1342V27.8773C29.1211 28.5117 28.6544 29.0279 28.0808 29.0279H27.0103C26.4368 29.0279 25.9701 28.5117 25.9701 27.8773C25.9701 27.0397 25.9701 3.07045 25.9701 2.12266C25.9701 1.48827 26.4368 0.972094 27.0103 0.972094H28.0808C28.6544 0.972094 29.1211 1.48827 29.1211 2.12266V16.1342C29.1211 16.4028 29.3177 15.6482 29.5605 15.6482C29.8034 15.6482 30 16.4028 30 16.1342V2.12291C30 0.952349 29.1389 0 28.0806 0ZM25.0909 25.7942L22.7074 24.9395V5.06046L25.0909 4.20608V25.7942ZM0.878906 19.1184V10.8819L3.11852 11.7583V18.2417L0.878906 19.1184ZM3.99765 11.7682L21.8285 5.37563V24.6244C21.6151 24.5479 4.20547 18.3065 3.99765 18.2318V11.7682ZM17.3827 25.1527C17.3827 25.5091 17.1206 25.7987 16.7986 25.7987H7.84264C7.5206 25.7987 7.25853 25.5091 7.25853 25.1527V20.4231L17.3824 24.0528L17.3827 25.1527Z" fill="#7B8F9E"/>
</svg>
