<svg width="34" height="26" viewBox="0 0 34 26" fill="none" xmlns="http://www.w3.org/2000/svg">
<path d="M17 9.6C14.1831 9.6 11.9 11.7498 11.9 14.4C11.9 17.0512 14.1831 19.2 17 19.2C19.8162 19.2 22.1 17.0512 22.1 14.4C22.1 11.7498 19.8162 9.6 17 9.6ZM30.6 4.8H26.52C25.959 4.8 25.3545 4.3904 25.1773 3.88928L24.1227 0.9104C23.9448 0.4096 23.341 0 22.78 0H11.22C10.659 0 10.0545 0.4096 9.87734 0.91072L8.82266 3.8896C8.64484 4.3904 8.041 4.8 7.48 4.8H3.4C1.53 4.8 0 6.24 0 8V22.4C0 24.16 1.53 25.6 3.4 25.6H30.6C32.47 25.6 34 24.16 34 22.4V8C34 6.24 32.47 4.8 30.6 4.8ZM17 22.4C12.3056 22.4 8.5 18.8182 8.5 14.4C8.5 9.98208 12.3056 6.4 17 6.4C21.6937 6.4 25.5 9.98208 25.5 14.4C25.5 18.8182 21.6937 22.4 17 22.4ZM29.41 10.2378C28.7531 10.2378 28.22 9.73664 28.22 9.11776C28.22 8.49952 28.7531 7.99776 29.41 7.99776C30.0676 7.99776 30.6 8.49952 30.6 9.11776C30.6 9.73664 30.0672 10.2378 29.41 10.2378Z" fill="#DEDEDE"/>
</svg>
