<svg width="20" height="20" viewBox="0 0 20 20" fill="none" xmlns="http://www.w3.org/2000/svg">
<path d="M19.2308 13.0769H17.6923C17.2308 13.0769 16.9231 13.3846 16.9231 13.8461V15.7692C16.9231 16 16.7692 16.1538 16.5385 16.1538H3.46154C3.23077 16.1538 3.07692 16 3.07692 15.7692V13.8461C3.07692 13.3846 2.76923 13.0769 2.30769 13.0769H0.769231C0.307692 13.0769 0 13.3846 0 13.8461V18.4615C0 18.9231 0.307692 19.2308 0.769231 19.2308H19.2308C19.6923 19.2308 20 18.9231 20 18.4615V13.8461C20 13.3846 19.6923 13.0769 19.2308 13.0769Z" fill="#3175B5"/>
<path d="M9.46139 12.8462C9.61523 13.0001 9.846 13.077 9.99985 13.077C10.1537 13.077 10.3845 13.0001 10.5383 12.8462L15.1537 8.23082C15.3075 8.07698 15.3845 7.92313 15.3845 7.69236C15.3845 7.46159 15.3075 7.30775 15.1537 7.1539L14.0768 6.07698C13.9229 5.92313 13.7691 5.84621 13.5383 5.84621C13.3075 5.84621 13.1537 5.92313 12.9999 6.07698L12.2306 6.84621C11.9999 7.07698 11.5383 6.92313 11.5383 6.53852V1.53852C11.5383 1.07698 11.2306 0.769287 10.7691 0.769287H9.23062C8.76908 0.769287 8.46139 1.07698 8.46139 1.53852V6.61544C8.46139 6.92313 8.07677 7.1539 7.76908 6.92313L6.99985 6.1539C6.846 6.00006 6.69216 5.92313 6.46139 5.92313C6.23062 5.92313 6.07677 6.00006 5.92293 6.1539L4.846 7.23082C4.69216 7.38467 4.61523 7.53852 4.61523 7.76929C4.61523 8.00006 4.69216 8.1539 4.846 8.30775L9.46139 12.8462Z" fill="#3175B5"/>
</svg>
