<svg width="207" height="207" viewBox="0 0 207 207" fill="none" xmlns="http://www.w3.org/2000/svg">
<path d="M0 0H207V207H0V0Z" fill="#EEEEEE"/>
<path fill-rule="evenodd" clip-rule="evenodd" d="M55.9999 155.334C52.6666 147.501 48.5999 129.034 58.9999 117.834C71.2299 104.663 88.77 102.998 99.1312 102.014L99.1351 102.014C99.7861 101.952 100.409 101.893 101 101.834C96.8333 94.6673 90.7 75.234 99.5 54.834C98.8333 60.334 98.2 73.534 101 82.334C103.8 91.134 109.167 98.0006 111.5 100.334C120.167 100.334 138.9 99.934 144.5 98.334C145.471 98.0565 146.5 97.7694 147.559 97.474C154.13 95.6403 161.847 93.4871 164 91.334C161.667 90.334 156.4 87.834 154 85.834C159.667 86.0006 171.2 86.234 172 85.834C173 85.334 175.5 51.334 118 36.834C96 32.834 71.5 44.334 66.5 47.834C63 48.1673 56.4268 49.3059 53 50.334C48 51.834 42 55.834 42 55.834C42 55.834 47.1 62.934 45.5 67.334C45.1356 68.3362 44.5553 69.687 43.85 71.329C40.6845 78.6981 35 91.9317 35 105.834C35 122.834 41.4999 143.834 55.9999 155.334ZM138.5 74.834C142.09 74.834 145 71.9238 145 68.334C145 64.7441 142.09 61.834 138.5 61.834C134.91 61.834 132 64.7441 132 68.334C132 71.9238 134.91 74.834 138.5 74.834ZM95 96.334C94.1667 94.6673 92.4 90.534 92 87.334C89.3333 85.834 82.7 82.834 77.5 82.834H58C63 88.5007 73.6 100.034 76 100.834C78.4 101.634 89.6667 98.1673 95 96.334Z" fill="#D8D8D8"/>
<path d="M58 140.334C57.8333 144.167 58.7 153.034 63.5 157.834C68.3 162.634 77.5 164.501 81.5 164.834H100.5C105 164.667 114.9 164.434 118.5 164.834C123 165.334 134.5 169.334 136.5 170.334C137.667 166.334 139.3 157.234 136.5 152.834C133.7 148.434 131.333 145.334 130.5 144.334C131.833 140.334 133.9 131.134 131.5 126.334C129.1 121.534 126.5 118.667 125.5 117.834C122.667 122.167 115 132.234 107 137.834C97 144.834 91 148.334 78.5 147.834C66 147.334 60.0001 142.334 58 140.334Z" fill="#D8D8D8"/>
</svg>
