<svg width="30" height="30" viewBox="0 0 30 30" fill="none" xmlns="http://www.w3.org/2000/svg">
<path d="M6.50011 12.9951C6.22413 12.9951 6.00012 13.2191 6.00012 13.4952V16.4955C6.00012 16.7715 6.22413 16.9955 6.50011 16.9955C6.77609 16.9955 7.0001 16.7715 7.0001 16.4955V13.4952C7.00016 13.2191 6.77615 12.9951 6.50011 12.9951Z" fill="#7B8F9E"/>
<path d="M6.55414 0.133674L1.82652 2.0254C0.49501 2.51847 0 3.18756 0 4.49417V25.501C0 26.8076 0.49501 27.4767 1.81404 27.9658L6.56363 29.866C6.79866 29.955 7.03462 30 7.26566 30C8.27068 30 9.00019 29.1599 9.00019 28.0023V1.99394C9.00019 0.571768 7.86614 -0.360326 6.55414 0.133674ZM8.00014 28.0023C8.00014 28.5988 7.70512 28.9999 7.26566 28.9999C7.15614 28.9999 7.03813 28.9764 6.92563 28.9344L2.17405 27.0327C1.23055 26.6831 1.00004 26.3821 1.00004 25.501V4.49417C1.00004 3.61306 1.23055 3.31256 2.18606 2.95849L6.91614 1.06629C7.03813 1.02029 7.15562 0.996795 7.26513 0.996795C7.70465 0.996795 8.00014 1.39733 8.00014 1.99394V28.0023Z" fill="#7B8F9E"/>
<path d="M10.4377 2.99403H17.5004C18.3274 2.99403 19.0004 3.66711 19.0004 4.49419V11.995C19.0004 12.271 19.2239 12.495 19.5004 12.495C19.7769 12.495 20.0004 12.271 20.0004 11.995V4.49419C20.0004 3.11556 18.8789 1.9939 17.5003 1.9939H10.4377C10.1618 1.9939 9.93774 2.21792 9.93774 2.49393C9.93774 2.76994 10.1618 2.99403 10.4377 2.99403Z" fill="#7B8F9E"/>
<path d="M19.5004 17.4956C19.2239 17.4956 19.0004 17.7196 19.0004 17.9956V25.4965C19.0004 26.3235 18.3274 26.9966 17.5004 26.9966H10.5002C10.2243 26.9966 10.0002 27.2207 10.0002 27.4967C10.0002 27.7727 10.2243 27.9967 10.5002 27.9967H17.5004C18.8789 27.9967 20.0005 26.8751 20.0005 25.4964V17.9956C20.0004 17.7196 19.7769 17.4956 19.5004 17.4956Z" fill="#7B8F9E"/>
<path d="M29.9621 14.8043C29.9366 14.7428 29.9001 14.6878 29.8536 14.6413L24.854 9.64076C24.6584 9.44527 24.3424 9.44527 24.147 9.64076C23.9514 9.83631 23.9514 10.1523 24.147 10.3478L28.2935 14.4953H11.5002C11.2243 14.4953 11.0002 14.7193 11.0002 14.9953C11.0002 15.2713 11.2243 15.4953 11.5002 15.4953H28.2936L24.147 19.6423C23.9514 19.8379 23.9514 20.1539 24.147 20.3494C24.2445 20.4469 24.3725 20.4959 24.5005 20.4959C24.6285 20.4959 24.7565 20.4469 24.854 20.3494L29.8536 15.3493C29.9001 15.3028 29.9366 15.2479 29.9621 15.1863C30.0126 15.0644 30.0126 14.9264 29.9621 14.8043Z" fill="#7B8F9E"/>
</svg>
