<svg width="200" height="288" viewBox="0 0 200 288" fill="none" xmlns="http://www.w3.org/2000/svg">
<path d="M47.7023 77.8572C45.2135 74.655 45.6283 68.1839 46.1468 65.3487C40.4437 65.3487 32.1469 65.002 25.4064 62C18.6659 58.998 10.9815 52.0026 11.5 48C12.0185 43.9974 22.3406 40.3799 28.5 39.5C32 39 42.3705 36.8336 46 36.5C47.21 28.8281 47.2874 13.4133 51.8499 9.81095C75.1823 -9.20197 106.292 4.30721 110.959 9.81095C114.692 14.2139 117.699 28.1617 118.736 35.5C122.193 35.6668 131.222 36.827 136.5 38C141 39 151.402 39.5 153.476 46C156.059 54.0978 146.5 59 137.5 62C132.288 63.7373 123.23 64.1812 118.736 65.3487C119.255 68.3507 118.736 74.8551 117.181 77.8572C115.936 80.2588 113.551 81.5264 112.514 81.8599C112.514 85.8626 109.922 93.8681 108.885 96.8701C108.055 99.2717 104.737 104.208 103.181 106.377C102.352 109.178 102.836 117.217 103.181 120.886C104.391 120.886 107.739 121.11 110.959 121.887C115.107 122.888 117.526 126.419 118.736 128.087C117.907 129.288 117.354 130.726 117.181 132.394C118.736 132.895 124.44 136.397 129.106 137.898C133.773 139.399 147.254 139.899 151.402 141.901C154.72 143.502 154.167 152.908 153.476 157.411L145.698 220.954C145.007 226.625 144.039 239.267 145.698 244.47C147.772 250.975 147.254 260.481 147.254 265.985C147.254 270.388 148.636 282.496 149.328 288H6.22198V240.163C6.22198 240.163 2.59249 235.965 0 233.463C3.11099 226.458 4.66649 201.941 6.22198 192.435C7.77748 182.929 16.592 147.905 17.629 145.403C18.6659 142.901 31.6284 139.899 36.8134 137.898C40.9614 136.297 49.9487 133.562 53.9238 132.394C53.0942 129.993 53.2325 127.057 53.4053 125.89C55.0645 123.888 62.7383 122.387 66.3678 121.887C67.6122 119.485 66.8863 110.546 66.3678 106.377C65.158 105.042 62.0124 101.273 59.1088 96.8701C56.2052 92.4671 54.0967 85.0287 53.4053 81.8599C52.3684 81.8599 50.8133 81.8599 47.7023 77.8572Z" fill="#C4C4C4"/>
<path d="M140.968 126C143.998 114.535 146.37 104.726 146.37 96.0677L146.37 96.0645C146.37 96.0645 125.38 77.3275 123 63C123 63 142.042 79.5321 148.967 79.5321C155.891 79.5321 174.934 63 174.934 63C172.555 77.317 151.594 96.0371 151.564 96.0645C151.564 104.724 153.936 114.533 156.966 126H140.968Z" fill="#C4C4C4"/>
<path d="M141.885 92.0496H158.667C162.616 93.9397 168.21 110.793 170.513 118.983C173.968 129.536 181.965 152.533 186.308 160.093C191.738 169.543 197.167 182.301 199.142 189.862C201.116 197.422 199.635 213.488 195.193 213.961C191.639 214.339 177.259 211.913 170.513 210.653L158.667 130.324L143.859 127.961C143.365 127.804 142.983 127.394 141.403 127.016C139.429 126.544 136.467 122.764 135.48 120.873C134.69 119.361 136 116.5 135.974 115.676C135.948 114.851 134.171 114.126 134.499 111.5C134.999 107.5 136.5 108 136.467 107.17C136.435 106.341 135 106.808 135 103.5C135 100.192 136.506 100.335 137 99.5C137 98.555 135.542 98.8732 137 94.5C137 94.5 140.239 91.8921 141.885 92.0496Z" fill="#C4C4C4"/>
<path fill-rule="evenodd" clip-rule="evenodd" d="M142.394 131C141.657 133.411 140.857 135.915 140.025 138.517L140.025 138.519L140.024 138.52C139.305 140.77 138.562 143.094 137.816 145.498C133.499 152.571 126.44 167.019 123.469 183.829C123.387 184.523 123.305 185.112 123.233 185.629C123.064 186.846 122.95 187.666 123.022 188.537C123.007 188.646 123 188.735 123 188.805C123 189.33 123.261 190.133 123.68 191.13C123.758 191.338 123.844 191.558 123.938 191.791C124.007 191.961 124.088 192.117 124.18 192.257C124.514 192.984 124.898 193.779 125.306 194.621C126.42 196.924 127.705 199.579 128.59 202.132C128.66 204.562 128.824 206.931 129.097 209.208C129.224 210.261 129.304 211.191 129.342 212.004C133.073 234.516 146.49 252.999 146.49 252.999L151.662 244.765L156.833 253C156.833 250.396 158.372 246.621 160.387 241.677C162.853 235.626 166.033 227.824 167.983 218.269C163.219 215.232 153.504 211.175 144.165 214.115C148.113 210.66 158.024 207.926 168.683 214.417C169.214 211.085 169.58 207.559 169.71 203.838C170.555 203.49 173.367 201.994 176 199.861C175.992 199.838 175.984 199.816 175.977 199.793C175.972 199.78 175.968 199.766 175.964 199.753C174.959 196.556 172.138 194.706 170.431 193.991C170.146 193.914 169.869 193.832 169.6 193.745C169.068 182.069 167.273 171.629 165.012 162.228C166.168 160.864 167.145 159.388 167.971 157.87C167.983 157.729 167.99 157.59 167.99 157.454C167.99 155.861 162.987 149.16 160.486 146.008L160.433 145.811C159.653 143.295 158.877 140.866 158.126 138.518C157.536 136.669 156.961 134.871 156.414 133.121C151.369 132.764 146.487 131.927 142.394 131ZM149.077 232.412C149.077 234.686 147.34 236.53 145.198 236.53C143.056 236.53 141.319 234.686 141.319 232.412C141.319 230.138 143.056 228.295 145.198 228.295C147.34 228.295 149.077 230.138 149.077 232.412Z" fill="white" stroke="white" stroke-width="5"/>
<path fill-rule="evenodd" clip-rule="evenodd" d="M152.493 118C153.699 123.975 155.937 130.574 158.446 137.974C159.246 140.333 160.074 142.774 160.905 145.302L160.996 145.286L161.123 145.263L160.961 145.5C163.628 148.667 168.961 155.4 168.961 157C168.961 157.136 168.954 157.276 168.94 157.418C168.06 158.943 167.019 160.426 165.787 161.797C168.197 171.242 170.11 181.732 170.678 193.463C170.964 193.55 171.26 193.633 171.563 193.711C173.383 194.429 176.39 196.288 177.461 199.5C177.474 199.537 177.486 199.573 177.5 199.608C174.693 201.752 171.696 203.254 170.794 203.605C170.656 207.343 170.266 210.886 169.7 214.234C158.337 207.712 147.772 210.459 143.562 213.93C153.519 210.977 163.874 215.052 168.954 218.104C166.875 227.704 163.485 235.544 160.856 241.623C158.708 246.591 157.068 250.384 157.068 253L151.555 244.726L146.041 252.999C146.041 252.999 131.738 234.429 127.761 211.809C127.721 210.992 127.635 210.058 127.5 209C127.209 206.712 127.034 204.332 126.96 201.89C126.016 199.325 124.647 196.658 123.459 194.344C123.024 193.498 122.614 192.699 122.257 191.969C122.16 191.827 122.073 191.671 122 191.5C121.9 191.266 121.808 191.045 121.725 190.836C121.278 189.834 121 189.028 121 188.5C121 188.43 121.008 188.34 121.023 188.23C120.947 187.355 121.068 186.532 121.249 185.309C121.325 184.79 121.413 184.198 121.5 183.5C124.667 166.61 132.193 152.094 136.794 144.988C137.59 142.572 138.382 140.237 139.149 137.976L139.149 137.975L139.149 137.974C141.659 130.574 143.896 123.975 145.102 118H152.493ZM144.664 236.452C146.947 236.452 148.799 234.599 148.799 232.314C148.799 230.03 146.947 228.177 144.664 228.177C142.38 228.177 140.529 230.03 140.529 232.314C140.529 234.599 142.38 236.452 144.664 236.452Z" fill="#C4C4C4"/>
<path d="M113.021 72.6803C113.021 70.3601 113.674 66.6865 114 65.1397C111.552 63.9796 111.063 70.3601 111.063 72.6803C111.063 75.0005 111.552 80.801 111.063 87.1816C110.671 92.286 112.205 89.3084 113.021 87.1816V72.6803Z" fill="white"/>
<circle cx="144.5" cy="232.5" r="2.5" fill="white"/>
<path d="M94 113C98.4 111.4 102.833 106.667 104.5 104.5C105.333 105.333 105.583 107.824 102.5 110C94 116 92.6667 114.667 88 114.5L94 113Z" fill="white"/>
<path d="M105.068 131.487C103.712 129.589 103.198 122.775 103.11 119.605C103.582 119.233 104.45 118.795 104.147 120.024C104.133 124.84 106.524 130.868 107.721 133.28C107.223 133.32 105.994 133.017 105.068 131.487Z" fill="white"/>
<path d="M66.9999 142C64.5999 135.6 65.3332 130.667 65.9999 129C62.9997 126.5 62 140.5 64.5 143.5C66.5 145.9 69.6667 153.5 71 157C70.6666 154.667 69.3999 148.4 66.9999 142Z" fill="white"/>
<path d="M150 90C148.8 90 141.5 90.6667 138 91C138.833 91.3333 140.9 92 142.5 92C144.5 92 151.5 90 150 90Z" fill="white"/>
</svg>
