<svg width="23" height="34" viewBox="0 0 23 34" fill="none" xmlns="http://www.w3.org/2000/svg">
<rect x="-0.25" y="0.25" width="0.5" height="8.5" transform="matrix(-1 0 0 1 11.5 25)" stroke="#17C1BC" stroke-width="0.5"/>
<path d="M22.5 13.1304C22.5 19.8845 17.5315 25.2768 11.5 25.2768C5.46852 25.2768 0.5 19.8845 0.5 13.1304C0.5 6.37627 5.46852 0.983887 11.5 0.983887C17.5315 0.983887 22.5 6.37627 22.5 13.1304Z" stroke="#17C1BC"/>
<g clip-path="url(#clip0)">
<path d="M17.4794 16.2744H6.76934L5.27734 7.98633H18.8201V14.8491C18.8201 15.6351 18.2187 16.2744 17.4794 16.2744ZM7.21398 15.7028H17.4794C17.9222 15.7028 18.2824 15.3199 18.2824 14.8491V8.55792H5.92791L7.21398 15.7028Z" fill="#17C1BC"/>
<path d="M8.87371 20.2755C7.98416 20.2755 7.26074 19.5064 7.26074 18.5607C7.26074 17.615 7.98416 16.8459 8.87371 16.8459C9.76326 16.8459 10.4867 17.615 10.4867 18.5607C10.4867 19.5064 9.76326 20.2755 8.87371 20.2755ZM8.87371 17.4175C8.28068 17.4175 7.7984 17.9303 7.7984 18.5607C7.7984 19.1912 8.28068 19.7039 8.87371 19.7039C9.46675 19.7039 9.94902 19.1912 9.94902 18.5607C9.94902 17.9303 9.46675 17.4175 8.87371 17.4175Z" fill="#17C1BC"/>
<path d="M15.0563 20.2755C14.1668 20.2755 13.4434 19.5064 13.4434 18.5607C13.4434 17.615 14.1668 16.8459 15.0563 16.8459C15.9459 16.8459 16.6693 17.615 16.6693 18.5607C16.6693 19.5064 15.9459 20.2755 15.0563 20.2755ZM15.0563 17.4175C14.4633 17.4175 13.981 17.9303 13.981 18.5607C13.981 19.1912 14.4633 19.7039 15.0563 19.7039C15.6494 19.7039 16.1316 19.1912 16.1316 18.5607C16.1316 17.9303 15.6494 17.4175 15.0563 17.4175Z" fill="#17C1BC"/>
<path d="M17.7446 18.5608H16.3733C16.2247 18.5608 16.1045 18.4331 16.1045 18.2751C16.1045 18.117 16.2247 17.9893 16.3733 17.9893H17.7446C17.8933 17.9893 18.0134 18.117 18.0134 18.2751C18.0134 18.4331 17.8933 18.5608 17.7446 18.5608Z" fill="#17C1BC"/>
<path d="M13.7398 18.5608H10.1907C10.042 18.5608 9.92188 18.4331 9.92188 18.2751C9.92188 18.117 10.042 17.9893 10.1907 17.9893H13.7395C13.8882 17.9893 14.0083 18.117 14.0083 18.2751C14.0083 18.4331 13.8882 18.5608 13.7398 18.5608Z" fill="#17C1BC"/>
<path d="M5.60269 8.55795C5.47365 8.55795 5.35967 8.45877 5.33789 8.31902L5.15106 7.12897H4.57254C4.42388 7.12897 4.30371 7.00121 4.30371 6.84317C4.30371 6.68512 4.42388 6.55737 4.57254 6.55737H5.60699L5.86829 8.22528C5.89275 8.38104 5.79383 8.52822 5.64731 8.55394C5.63199 8.5568 5.61747 8.55795 5.60269 8.55795Z" fill="#17C1BC"/>
<path d="M18.8205 10.5585H16.4011V7.98633H13.4439V10.5585H11.5621V7.98633H8.60504V10.5585H5.74121L6.30683 13.7023H8.60504V16.2738L11.5621 16.273V13.7023H13.4439V16.2721L16.4011 16.2713V13.7023H18.8205V10.5585ZM13.9816 8.55792H15.8634V10.5585H13.9816V8.55792ZM15.8634 11.1301V13.1307H13.9816V11.1301H15.8634ZM9.14269 8.55792H11.0245V10.5585H9.14269V8.55792ZM11.0245 11.1301V13.1307H9.14269V11.1301H11.0245ZM6.7512 13.1307L6.39097 11.1301H8.60504V13.1307H6.7512ZM11.0245 15.7014L9.14269 15.7023V13.7023H11.0245V15.7014ZM11.5621 13.1307V11.1301H13.4439V13.1307H11.5621ZM15.8634 15.6997L13.9816 15.7005V13.7023H15.8634V15.6997ZM18.2828 13.1307H16.4011V11.1301H18.2828V13.1307Z" fill="#17C1BC"/>
<path d="M7.55666 18.5608H6.72303C6.34505 18.5608 5.9816 18.3885 5.72648 18.0887C5.4719 17.7894 5.3477 17.3876 5.38561 16.9861C5.45416 16.2664 6.06359 15.7031 6.77356 15.7031C6.92223 15.7031 7.04239 15.8309 7.04239 15.9889C7.04239 16.147 6.92223 16.2747 6.77356 16.2747C6.33618 16.2747 5.96144 16.6125 5.92057 17.0435C5.89719 17.2879 5.97004 17.5231 6.12515 17.7054C6.27892 17.8858 6.49667 17.9892 6.72303 17.9892H7.55666C7.70532 17.9892 7.82549 18.117 7.82549 18.275C7.82549 18.4331 7.70505 18.5608 7.55666 18.5608Z" fill="#17C1BC"/>
</g>
<defs>
<clipPath id="clip0">
<rect width="15.8609" height="16.862" fill="white" transform="translate(2.95898 4.69971)"/>
</clipPath>
</defs>
</svg>
