<svg width="23" height="34" viewBox="0 0 23 34" fill="none" xmlns="http://www.w3.org/2000/svg">
<rect x="11" y="25" width="2" height="9" fill="#17C1BC"/>
<path d="M22.5 13.1304C22.5 19.8845 17.5315 25.2768 11.5 25.2768C5.46852 25.2768 0.5 19.8845 0.5 13.1304C0.5 6.37627 5.46852 0.983887 11.5 0.983887C17.5315 0.983887 22.5 6.37627 22.5 13.1304Z" fill="#17C1BC" stroke="#17C1BC"/>
<g clip-path="url(#clip0)">
<mask id="path-3-inside-1" fill="white">
<path d="M17.4794 16.2743H6.76934L5.27734 7.98621H18.8201V14.849C18.8201 15.635 18.2187 16.2743 17.4794 16.2743ZM7.21398 15.7027H17.4794C17.9222 15.7027 18.2824 15.3197 18.2824 14.849V8.5578H5.92791L7.21398 15.7027Z"/>
</mask>
<path d="M17.4794 16.2743H6.76934L5.27734 7.98621H18.8201V14.849C18.8201 15.635 18.2187 16.2743 17.4794 16.2743ZM7.21398 15.7027H17.4794C17.9222 15.7027 18.2824 15.3197 18.2824 14.849V8.5578H5.92791L7.21398 15.7027Z" fill="#17C1BC"/>
<path d="M6.76934 16.2743L5.78516 16.4515L5.93328 17.2743H6.76934V16.2743ZM5.27734 7.98621V6.98621H4.08125L4.29316 8.16338L5.27734 7.98621ZM18.8201 7.98621H19.8201V6.98621H18.8201V7.98621ZM7.21398 15.7027L6.2298 15.8799L6.37791 16.7027H7.21398V15.7027ZM18.2824 8.5578H19.2824V7.5578H18.2824V8.5578ZM5.92791 8.5578V7.5578H4.73184L4.94372 8.73495L5.92791 8.5578ZM17.4794 15.2743H6.76934V17.2743H17.4794V15.2743ZM7.75352 16.0971L6.26152 7.80904L4.29316 8.16338L5.78516 16.4515L7.75352 16.0971ZM5.27734 8.98621H18.8201V6.98621H5.27734V8.98621ZM17.8201 7.98621V14.849H19.8201V7.98621H17.8201ZM17.8201 14.849C17.8201 15.1412 17.6097 15.2743 17.4794 15.2743V17.2743C18.8278 17.2743 19.8201 16.1287 19.8201 14.849H17.8201ZM7.21398 16.7027H17.4794V14.7027H7.21398V16.7027ZM17.4794 16.7027C18.5313 16.7027 19.2824 15.8135 19.2824 14.849H17.2824C17.2824 14.8271 17.2913 14.7962 17.3186 14.7672C17.3467 14.7373 17.4033 14.7027 17.4794 14.7027V16.7027ZM19.2824 14.849V8.5578H17.2824V14.849H19.2824ZM18.2824 7.5578H5.92791V9.5578H18.2824V7.5578ZM4.94372 8.73495L6.2298 15.8799L8.19816 15.5255L6.91209 8.38065L4.94372 8.73495Z" fill="white" mask="url(#path-3-inside-1)"/>
<mask id="path-5-inside-2" fill="white">
<path d="M8.87371 20.2755C7.98416 20.2755 7.26074 19.5064 7.26074 18.5607C7.26074 17.615 7.98416 16.8459 8.87371 16.8459C9.76326 16.8459 10.4867 17.615 10.4867 18.5607C10.4867 19.5064 9.76326 20.2755 8.87371 20.2755ZM8.87371 17.4175C8.28068 17.4175 7.7984 17.9303 7.7984 18.5607C7.7984 19.1912 8.28068 19.7039 8.87371 19.7039C9.46675 19.7039 9.94902 19.1912 9.94902 18.5607C9.94902 17.9303 9.46675 17.4175 8.87371 17.4175Z"/>
</mask>
<path d="M8.87371 20.2755C7.98416 20.2755 7.26074 19.5064 7.26074 18.5607C7.26074 17.615 7.98416 16.8459 8.87371 16.8459C9.76326 16.8459 10.4867 17.615 10.4867 18.5607C10.4867 19.5064 9.76326 20.2755 8.87371 20.2755ZM8.87371 17.4175C8.28068 17.4175 7.7984 17.9303 7.7984 18.5607C7.7984 19.1912 8.28068 19.7039 8.87371 19.7039C9.46675 19.7039 9.94902 19.1912 9.94902 18.5607C9.94902 17.9303 9.46675 17.4175 8.87371 17.4175Z" fill="#17C1BC"/>
<path d="M8.87371 19.2755C8.59322 19.2755 8.26074 19.0127 8.26074 18.5607H6.26074C6.26074 20.0002 7.37509 21.2755 8.87371 21.2755V19.2755ZM8.26074 18.5607C8.26074 18.1088 8.59322 17.8459 8.87371 17.8459V15.8459C7.37509 15.8459 6.26074 17.1213 6.26074 18.5607H8.26074ZM8.87371 17.8459C9.1542 17.8459 9.48668 18.1088 9.48668 18.5607H11.4867C11.4867 17.1213 10.3723 15.8459 8.87371 15.8459V17.8459ZM9.48668 18.5607C9.48668 19.0127 9.1542 19.2755 8.87371 19.2755V21.2755C10.3723 21.2755 11.4867 20.0002 11.4867 18.5607H9.48668ZM8.87371 16.4175C7.67161 16.4175 6.7984 17.4365 6.7984 18.5607H8.7984C8.7984 18.5027 8.82009 18.4612 8.84207 18.4379C8.85284 18.4264 8.86179 18.4213 8.86613 18.4193C8.86956 18.4178 8.87125 18.4175 8.87371 18.4175V16.4175ZM6.7984 18.5607C6.7984 19.6849 7.67161 20.7039 8.87371 20.7039V18.7039C8.87125 18.7039 8.86956 18.7037 8.86613 18.7021C8.86179 18.7002 8.85284 18.695 8.84207 18.6836C8.82009 18.6602 8.7984 18.6188 8.7984 18.5607H6.7984ZM8.87371 20.7039C10.0758 20.7039 10.949 19.6849 10.949 18.5607H8.94902C8.94902 18.6188 8.92733 18.6602 8.90536 18.6836C8.89458 18.695 8.88563 18.7002 8.88129 18.7021C8.87786 18.7037 8.87617 18.7039 8.87371 18.7039V20.7039ZM10.949 18.5607C10.949 17.4365 10.0758 16.4175 8.87371 16.4175V18.4175C8.87617 18.4175 8.87786 18.4178 8.88129 18.4193C8.88563 18.4213 8.89458 18.4264 8.90536 18.4379C8.92733 18.4612 8.94902 18.5027 8.94902 18.5607H10.949Z" fill="white" mask="url(#path-5-inside-2)"/>
<mask id="path-7-inside-3" fill="white">
<path d="M15.0563 20.2755C14.1668 20.2755 13.4434 19.5064 13.4434 18.5607C13.4434 17.615 14.1668 16.8459 15.0563 16.8459C15.9459 16.8459 16.6693 17.615 16.6693 18.5607C16.6693 19.5064 15.9459 20.2755 15.0563 20.2755ZM15.0563 17.4175C14.4633 17.4175 13.981 17.9303 13.981 18.5607C13.981 19.1912 14.4633 19.7039 15.0563 19.7039C15.6494 19.7039 16.1316 19.1912 16.1316 18.5607C16.1316 17.9303 15.6494 17.4175 15.0563 17.4175Z"/>
</mask>
<path d="M15.0563 20.2755C14.1668 20.2755 13.4434 19.5064 13.4434 18.5607C13.4434 17.615 14.1668 16.8459 15.0563 16.8459C15.9459 16.8459 16.6693 17.615 16.6693 18.5607C16.6693 19.5064 15.9459 20.2755 15.0563 20.2755ZM15.0563 17.4175C14.4633 17.4175 13.981 17.9303 13.981 18.5607C13.981 19.1912 14.4633 19.7039 15.0563 19.7039C15.6494 19.7039 16.1316 19.1912 16.1316 18.5607C16.1316 17.9303 15.6494 17.4175 15.0563 17.4175Z" fill="#17C1BC"/>
<path d="M15.0563 19.2755C14.7758 19.2755 14.4434 19.0127 14.4434 18.5607H12.4434C12.4434 20.0002 13.5577 21.2755 15.0563 21.2755V19.2755ZM14.4434 18.5607C14.4434 18.1088 14.7758 17.8459 15.0563 17.8459V15.8459C13.5577 15.8459 12.4434 17.1213 12.4434 18.5607H14.4434ZM15.0563 17.8459C15.3368 17.8459 15.6693 18.1088 15.6693 18.5607H17.6693C17.6693 17.1213 16.5549 15.8459 15.0563 15.8459V17.8459ZM15.6693 18.5607C15.6693 19.0127 15.3368 19.2755 15.0563 19.2755V21.2755C16.5549 21.2755 17.6693 20.0002 17.6693 18.5607H15.6693ZM15.0563 16.4175C13.8542 16.4175 12.981 17.4365 12.981 18.5607H14.981C14.981 18.5027 15.0027 18.4612 15.0247 18.4379C15.0355 18.4264 15.0444 18.4213 15.0487 18.4193C15.0522 18.4178 15.0539 18.4175 15.0563 18.4175V16.4175ZM12.981 18.5607C12.981 19.6849 13.8542 20.7039 15.0563 20.7039V18.7039C15.0539 18.7039 15.0522 18.7037 15.0487 18.7021C15.0444 18.7002 15.0355 18.695 15.0247 18.6836C15.0027 18.6602 14.981 18.6188 14.981 18.5607H12.981ZM15.0563 20.7039C16.2584 20.7039 17.1316 19.6849 17.1316 18.5607H15.1316C15.1316 18.6188 15.1099 18.6602 15.088 18.6836C15.0772 18.695 15.0682 18.7002 15.0639 18.7021C15.0605 18.7037 15.0588 18.7039 15.0563 18.7039V20.7039ZM17.1316 18.5607C17.1316 17.4365 16.2584 16.4175 15.0563 16.4175V18.4175C15.0588 18.4175 15.0605 18.4178 15.0639 18.4193C15.0682 18.4213 15.0772 18.4264 15.088 18.4379C15.1099 18.4612 15.1316 18.5027 15.1316 18.5607H17.1316Z" fill="white" mask="url(#path-7-inside-3)"/>
<mask id="path-9-inside-4" fill="white">
<path d="M17.7446 18.5607H16.3733C16.2247 18.5607 16.1045 18.433 16.1045 18.2749C16.1045 18.1169 16.2247 17.9891 16.3733 17.9891H17.7446C17.8933 17.9891 18.0134 18.1169 18.0134 18.2749C18.0134 18.433 17.8933 18.5607 17.7446 18.5607Z"/>
</mask>
<path d="M17.7446 18.5607H16.3733C16.2247 18.5607 16.1045 18.433 16.1045 18.2749C16.1045 18.1169 16.2247 17.9891 16.3733 17.9891H17.7446C17.8933 17.9891 18.0134 18.1169 18.0134 18.2749C18.0134 18.433 17.8933 18.5607 17.7446 18.5607Z" fill="#17C1BC"/>
<path d="M17.7446 17.5607H16.3733V19.5607H17.7446V17.5607ZM16.3733 17.5607C16.8337 17.5607 17.1045 17.9392 17.1045 18.2749H15.1045C15.1045 18.9267 15.6156 19.5607 16.3733 19.5607V17.5607ZM17.1045 18.2749C17.1045 18.6106 16.8337 18.9891 16.3733 18.9891V16.9891C15.6156 16.9891 15.1045 17.6231 15.1045 18.2749H17.1045ZM16.3733 18.9891H17.7446V16.9891H16.3733V18.9891ZM17.7446 18.9891C17.2842 18.9891 17.0134 18.6106 17.0134 18.2749H19.0134C19.0134 17.6231 18.5023 16.9891 17.7446 16.9891V18.9891ZM17.0134 18.2749C17.0134 17.9392 17.2842 17.5607 17.7446 17.5607V19.5607C18.5023 19.5607 19.0134 18.9267 19.0134 18.2749H17.0134Z" fill="white" mask="url(#path-9-inside-4)"/>
<mask id="path-11-inside-5" fill="white">
<path d="M13.7398 18.5607H10.1907C10.042 18.5607 9.92188 18.433 9.92188 18.2749C9.92188 18.1169 10.042 17.9891 10.1907 17.9891H13.7395C13.8882 17.9891 14.0083 18.1169 14.0083 18.2749C14.0083 18.433 13.8882 18.5607 13.7398 18.5607Z"/>
</mask>
<path d="M13.7398 18.5607H10.1907C10.042 18.5607 9.92188 18.433 9.92188 18.2749C9.92188 18.1169 10.042 17.9891 10.1907 17.9891H13.7395C13.8882 17.9891 14.0083 18.1169 14.0083 18.2749C14.0083 18.433 13.8882 18.5607 13.7398 18.5607Z" fill="#17C1BC"/>
<path d="M13.7398 17.5607H10.1907V19.5607H13.7398V17.5607ZM10.1907 17.5607C10.6511 17.5607 10.9219 17.9392 10.9219 18.2749H8.92188C8.92188 18.9267 9.43298 19.5607 10.1907 19.5607V17.5607ZM10.9219 18.2749C10.9219 18.6106 10.6511 18.9891 10.1907 18.9891V16.9891C9.43298 16.9891 8.92188 17.6231 8.92188 18.2749H10.9219ZM10.1907 18.9891H13.7395V16.9891H10.1907V18.9891ZM13.7395 18.9891C13.2791 18.9891 13.0083 18.6106 13.0083 18.2749H15.0083C15.0083 17.6231 14.4972 16.9891 13.7395 16.9891V18.9891ZM13.0083 18.2749C13.0083 17.9399 13.2785 17.5607 13.7398 17.5607V19.5607C14.4979 19.5607 15.0083 18.926 15.0083 18.2749H13.0083Z" fill="white" mask="url(#path-11-inside-5)"/>
<mask id="path-13-inside-6" fill="white">
<path d="M5.60269 8.55782C5.47365 8.55782 5.35967 8.45865 5.33789 8.3189L5.15106 7.12884H4.57254C4.42388 7.12884 4.30371 7.00109 4.30371 6.84305C4.30371 6.685 4.42388 6.55725 4.57254 6.55725H5.60699L5.86829 8.22516C5.89275 8.38092 5.79383 8.5281 5.64731 8.55382C5.63199 8.55668 5.61747 8.55782 5.60269 8.55782Z"/>
</mask>
<path d="M5.60269 8.55782C5.47365 8.55782 5.35967 8.45865 5.33789 8.3189L5.15106 7.12884H4.57254C4.42388 7.12884 4.30371 7.00109 4.30371 6.84305C4.30371 6.685 4.42388 6.55725 4.57254 6.55725H5.60699L5.86829 8.22516C5.89275 8.38092 5.79383 8.5281 5.64731 8.55382C5.63199 8.55668 5.61747 8.55782 5.60269 8.55782Z" fill="#17C1BC"/>
<path d="M5.33789 8.3189L6.32597 8.16495L6.32579 8.1638L5.33789 8.3189ZM5.15106 7.12884L6.13896 6.97375L6.00631 6.12884H5.15106V7.12884ZM5.60699 6.55725L6.59494 6.40247L6.46252 5.55725H5.60699V6.55725ZM5.86829 8.22516L4.88034 8.37993L4.8804 8.38031L5.86829 8.22516ZM5.64731 8.55382L5.47439 7.56883L5.46396 7.57078L5.64731 8.55382ZM5.60269 7.55782C6.00221 7.55782 6.2775 7.85388 6.32597 8.16495L4.34981 8.47285C4.44183 9.06342 4.94509 9.55782 5.60269 9.55782V7.55782ZM6.32579 8.1638L6.13896 6.97375L4.16316 7.28394L4.34999 8.474L6.32579 8.1638ZM5.15106 6.12884H4.57254V8.12884H5.15106V6.12884ZM4.57254 6.12884C5.03294 6.12884 5.30371 6.50735 5.30371 6.84305H3.30371C3.30371 7.49483 3.81481 8.12884 4.57254 8.12884V6.12884ZM5.30371 6.84305C5.30371 7.17874 5.03294 7.55725 4.57254 7.55725V5.55725C3.81481 5.55725 3.30371 6.19126 3.30371 6.84305H5.30371ZM4.57254 7.55725H5.60699V5.55725H4.57254V7.55725ZM4.61904 6.71203L4.88034 8.37993L6.85624 8.07038L6.59494 6.40247L4.61904 6.71203ZM4.8804 8.38031C4.82871 8.05122 5.03175 7.6466 5.4744 7.56889L5.82023 9.53876C6.5559 9.4096 6.95679 8.71061 6.85618 8.07L4.8804 8.38031ZM5.46396 7.57078C5.51605 7.56106 5.56346 7.55782 5.60269 7.55782V9.55782C5.67149 9.55782 5.74793 9.5523 5.83066 9.53687L5.46396 7.57078Z" fill="white" mask="url(#path-13-inside-6)"/>
<mask id="path-15-inside-7" fill="white">
<path d="M18.8205 10.5584H16.4011V7.98621H13.4439V10.5584H11.5621V7.98621H8.60504V10.5584H5.74121L6.30683 13.7021H8.60504V16.2737L11.5621 16.2729V13.7021H13.4439V16.272L16.4011 16.2711V13.7021H18.8205V10.5584ZM13.9816 8.5578H15.8634V10.5584H13.9816V8.5578ZM15.8634 11.13V13.1305H13.9816V11.13H15.8634ZM9.14269 8.5578H11.0245V10.5584H9.14269V8.5578ZM11.0245 11.13V13.1305H9.14269V11.13H11.0245ZM6.7512 13.1305L6.39097 11.13H8.60504V13.1305H6.7512ZM11.0245 15.7013L9.14269 15.7021V13.7021H11.0245V15.7013ZM11.5621 13.1305V11.13H13.4439V13.1305H11.5621ZM15.8634 15.6996L13.9816 15.7004V13.7021H15.8634V15.6996ZM18.2828 13.1305H16.4011V11.13H18.2828V13.1305Z"/>
</mask>
<path d="M18.8205 10.5584H16.4011V7.98621H13.4439V10.5584H11.5621V7.98621H8.60504V10.5584H5.74121L6.30683 13.7021H8.60504V16.2737L11.5621 16.2729V13.7021H13.4439V16.272L16.4011 16.2711V13.7021H18.8205V10.5584ZM13.9816 8.5578H15.8634V10.5584H13.9816V8.5578ZM15.8634 11.13V13.1305H13.9816V11.13H15.8634ZM9.14269 8.5578H11.0245V10.5584H9.14269V8.5578ZM11.0245 11.13V13.1305H9.14269V11.13H11.0245ZM6.7512 13.1305L6.39097 11.13H8.60504V13.1305H6.7512ZM11.0245 15.7013L9.14269 15.7021V13.7021H11.0245V15.7013ZM11.5621 13.1305V11.13H13.4439V13.1305H11.5621ZM15.8634 15.6996L13.9816 15.7004V13.7021H15.8634V15.6996ZM18.2828 13.1305H16.4011V11.13H18.2828V13.1305Z" fill="#17C1BC"/>
<path d="M18.8205 10.5584H19.8205V9.55837H18.8205V10.5584ZM16.4011 10.5584H15.4011V11.5584H16.4011V10.5584ZM16.4011 7.98621H17.4011V6.98621H16.4011V7.98621ZM13.4439 7.98621V6.98621H12.4439V7.98621H13.4439ZM13.4439 10.5584V11.5584H14.4439V10.5584H13.4439ZM11.5621 10.5584H10.5621V11.5584H11.5621V10.5584ZM11.5621 7.98621H12.5621V6.98621H11.5621V7.98621ZM8.60504 7.98621V6.98621H7.60504V7.98621H8.60504ZM8.60504 10.5584V11.5584H9.60504V10.5584H8.60504ZM5.74121 10.5584V9.55837H4.54524L4.75701 10.7354L5.74121 10.5584ZM6.30683 13.7021L5.32263 13.8792L5.47069 14.7021H6.30683V13.7021ZM8.60504 13.7021H9.60504V12.7021H8.60504V13.7021ZM8.60504 16.2737H7.60504V17.274L8.60533 17.2737L8.60504 16.2737ZM11.5621 16.2729L11.5624 17.2729L12.5621 17.2726V16.2729H11.5621ZM11.5621 13.7021V12.7021H10.5621V13.7021H11.5621ZM13.4439 13.7021H14.4439V12.7021H13.4439V13.7021ZM13.4439 16.272H12.4439V17.2723L13.4442 17.272L13.4439 16.272ZM16.4011 16.2711L16.4013 17.2711L17.4011 17.2709V16.2711H16.4011ZM16.4011 13.7021V12.7021H15.4011V13.7021H16.4011ZM18.8205 13.7021V14.7021H19.8205V13.7021H18.8205ZM13.9816 8.5578V7.5578H12.9816V8.5578H13.9816ZM15.8634 8.5578H16.8634V7.5578H15.8634V8.5578ZM15.8634 10.5584V11.5584H16.8634V10.5584H15.8634ZM13.9816 10.5584H12.9816V11.5584H13.9816V10.5584ZM15.8634 11.13H16.8634V10.13H15.8634V11.13ZM15.8634 13.1305V14.1305H16.8634V13.1305H15.8634ZM13.9816 13.1305H12.9816V14.1305H13.9816V13.1305ZM13.9816 11.13V10.13H12.9816V11.13H13.9816ZM9.14269 8.5578V7.5578H8.14269V8.5578H9.14269ZM11.0245 8.5578H12.0245V7.5578H11.0245V8.5578ZM11.0245 10.5584V11.5584H12.0245V10.5584H11.0245ZM9.14269 10.5584H8.14269V11.5584H9.14269V10.5584ZM11.0245 11.13H12.0245V10.13H11.0245V11.13ZM11.0245 13.1305V14.1305H12.0245V13.1305H11.0245ZM9.14269 13.1305H8.14269V14.1305H9.14269V13.1305ZM9.14269 11.13V10.13H8.14269V11.13H9.14269ZM6.7512 13.1305L5.76703 13.3077L5.91518 14.1305H6.7512V13.1305ZM6.39097 11.13V10.13H5.19482L5.4068 11.3072L6.39097 11.13ZM8.60504 11.13H9.60504V10.13H8.60504V11.13ZM8.60504 13.1305V14.1305H9.60504V13.1305H8.60504ZM11.0245 15.7013L11.0249 16.7013L12.0245 16.7008V15.7013H11.0245ZM9.14269 15.7021H8.14269V16.7026L9.14315 16.7021L9.14269 15.7021ZM9.14269 13.7021V12.7021H8.14269V13.7021H9.14269ZM11.0245 13.7021H12.0245V12.7021H11.0245V13.7021ZM11.5621 13.1305H10.5621V14.1305H11.5621V13.1305ZM11.5621 11.13V10.13H10.5621V11.13H11.5621ZM13.4439 11.13H14.4439V10.13H13.4439V11.13ZM13.4439 13.1305V14.1305H14.4439V13.1305H13.4439ZM15.8634 15.6996L15.8639 16.6996L16.8634 16.6991V15.6996H15.8634ZM13.9816 15.7004H12.9816V16.7009L13.9821 16.7004L13.9816 15.7004ZM13.9816 13.7021V12.7021H12.9816V13.7021H13.9816ZM15.8634 13.7021H16.8634V12.7021H15.8634V13.7021ZM18.2828 13.1305V14.1305H19.2828V13.1305H18.2828ZM16.4011 13.1305H15.4011V14.1305H16.4011V13.1305ZM16.4011 11.13V10.13H15.4011V11.13H16.4011ZM18.2828 11.13H19.2828V10.13H18.2828V11.13ZM18.8205 9.55837H16.4011V11.5584H18.8205V9.55837ZM17.4011 10.5584V7.98621H15.4011V10.5584H17.4011ZM16.4011 6.98621H13.4439V8.98621H16.4011V6.98621ZM12.4439 7.98621V10.5584H14.4439V7.98621H12.4439ZM13.4439 9.55837H11.5621V11.5584H13.4439V9.55837ZM12.5621 10.5584V7.98621H10.5621V10.5584H12.5621ZM11.5621 6.98621H8.60504V8.98621H11.5621V6.98621ZM7.60504 7.98621V10.5584H9.60504V7.98621H7.60504ZM8.60504 9.55837H5.74121V11.5584H8.60504V9.55837ZM4.75701 10.7354L5.32263 13.8792L7.29102 13.5251L6.72541 10.3813L4.75701 10.7354ZM6.30683 14.7021H8.60504V12.7021H6.30683V14.7021ZM7.60504 13.7021V16.2737H9.60504V13.7021H7.60504ZM8.60533 17.2737L11.5624 17.2729L11.5619 15.2729L8.60475 15.2737L8.60533 17.2737ZM12.5621 16.2729V13.7021H10.5621V16.2729H12.5621ZM11.5621 14.7021H13.4439V12.7021H11.5621V14.7021ZM12.4439 13.7021V16.272H14.4439V13.7021H12.4439ZM13.4442 17.272L16.4013 17.2711L16.4008 15.2711L13.4437 15.272L13.4442 17.272ZM17.4011 16.2711V13.7021H15.4011V16.2711H17.4011ZM16.4011 14.7021H18.8205V12.7021H16.4011V14.7021ZM19.8205 13.7021V10.5584H17.8205V13.7021H19.8205ZM13.9816 9.5578H15.8634V7.5578H13.9816V9.5578ZM14.8634 8.5578V10.5584H16.8634V8.5578H14.8634ZM15.8634 9.55837H13.9816V11.5584H15.8634V9.55837ZM14.9816 10.5584V8.5578H12.9816V10.5584H14.9816ZM14.8634 11.13V13.1305H16.8634V11.13H14.8634ZM15.8634 12.1305H13.9816V14.1305H15.8634V12.1305ZM14.9816 13.1305V11.13H12.9816V13.1305H14.9816ZM13.9816 12.13H15.8634V10.13H13.9816V12.13ZM9.14269 9.5578H11.0245V7.5578H9.14269V9.5578ZM10.0245 8.5578V10.5584H12.0245V8.5578H10.0245ZM11.0245 9.55837H9.14269V11.5584H11.0245V9.55837ZM10.1427 10.5584V8.5578H8.14269V10.5584H10.1427ZM10.0245 11.13V13.1305H12.0245V11.13H10.0245ZM11.0245 12.1305H9.14269V14.1305H11.0245V12.1305ZM10.1427 13.1305V11.13H8.14269V13.1305H10.1427ZM9.14269 12.13H11.0245V10.13H9.14269V12.13ZM7.73537 12.9533L7.37514 10.9527L5.4068 11.3072L5.76703 13.3077L7.73537 12.9533ZM6.39097 12.13H8.60504V10.13H6.39097V12.13ZM7.60504 11.13V13.1305H9.60504V11.13H7.60504ZM8.60504 12.1305H6.7512V14.1305H8.60504V12.1305ZM11.024 14.7013L9.14224 14.7021L9.14315 16.7021L11.0249 16.7013L11.024 14.7013ZM10.1427 15.7021V13.7021H8.14269V15.7021H10.1427ZM9.14269 14.7021H11.0245V12.7021H9.14269V14.7021ZM10.0245 13.7021V15.7013H12.0245V13.7021H10.0245ZM12.5621 13.1305V11.13H10.5621V13.1305H12.5621ZM11.5621 12.13H13.4439V10.13H11.5621V12.13ZM12.4439 11.13V13.1305H14.4439V11.13H12.4439ZM13.4439 12.1305H11.5621V14.1305H13.4439V12.1305ZM15.8629 14.6996L13.9811 14.7004L13.9821 16.7004L15.8639 16.6996L15.8629 14.6996ZM14.9816 15.7004V13.7021H12.9816V15.7004H14.9816ZM13.9816 14.7021H15.8634V12.7021H13.9816V14.7021ZM14.8634 13.7021V15.6996H16.8634V13.7021H14.8634ZM18.2828 12.1305H16.4011V14.1305H18.2828V12.1305ZM17.4011 13.1305V11.13H15.4011V13.1305H17.4011ZM16.4011 12.13H18.2828V10.13H16.4011V12.13ZM17.2828 11.13V13.1305H19.2828V11.13H17.2828Z" fill="white" mask="url(#path-15-inside-7)"/>
<path d="M5.88277 17.0398L5.42285 16.9957L5.88277 17.0398ZM5.42281 16.9962L5.88277 17.0398L5.42283 16.996C5.42282 16.996 5.42281 16.9961 5.42281 16.9962Z" fill="#17C1BC" stroke="white"/>
</g>
<defs>
<clipPath id="clip0">
<rect width="15.8609" height="16.862" fill="white" transform="translate(2.95898 4.69958)"/>
</clipPath>
</defs>
</svg>
