<svg width="23" height="34" viewBox="0 0 23 34" fill="none" xmlns="http://www.w3.org/2000/svg">
<rect x="11" y="25" width="2" height="9" fill="#17C1BC"/>
<path d="M22.5 13.011C22.5 19.7651 17.5315 25.1575 11.5 25.1575C5.46852 25.1575 0.5 19.7651 0.5 13.011C0.5 6.25689 5.46852 0.864502 11.5 0.864502C17.5315 0.864502 22.5 6.25689 22.5 13.011Z" stroke="#17C1BC"/>
<g clip-path="url(#clip0)">
<path d="M8.5713 19.6489C9.10579 19.6489 9.53908 19.1626 9.53908 18.5628C9.53908 17.963 9.10579 17.4768 8.5713 17.4768C8.03681 17.4768 7.60352 17.963 7.60352 18.5628C7.60352 19.1626 8.03681 19.6489 8.5713 19.6489Z" fill="#17C1BC"/>
<path d="M15.8291 19.6489C16.3636 19.6489 16.7969 19.1626 16.7969 18.5628C16.7969 17.963 16.3636 17.4768 15.8291 17.4768C15.2946 17.4768 14.8613 17.963 14.8613 18.5628C14.8613 19.1626 15.2946 19.6489 15.8291 19.6489Z" fill="#17C1BC"/>
<path d="M6.15187 6.6165H4.94214C4.80834 6.6165 4.7002 6.49514 4.7002 6.34499C4.7002 6.19485 4.80834 6.07349 4.94214 6.07349H6.15187C6.28566 6.07349 6.39381 6.19485 6.39381 6.34499C6.39381 6.49514 6.28566 6.6165 6.15187 6.6165Z" fill="#17C1BC"/>
<path d="M6.15112 17.4768C6.01733 17.4768 5.90918 17.3554 5.90918 17.2052V6.34499C5.90918 6.19485 6.01733 6.07349 6.15112 6.07349C6.28492 6.07349 6.39307 6.19485 6.39307 6.34499V17.2052C6.39307 17.3554 6.28492 17.4768 6.15112 17.4768Z" fill="#17C1BC"/>
<path d="M18.0064 17.4769H6.15112C6.01733 17.4769 5.90918 17.3555 5.90918 17.2053C5.90918 17.0552 6.01733 16.9338 6.15112 16.9338H18.0064C18.1402 16.9338 18.2484 17.0552 18.2484 17.2053C18.2484 17.3555 18.1402 17.4769 18.0064 17.4769Z" fill="#17C1BC"/>
<path d="M7.94043 9.63892V17.2268M7.94043 9.63892H16.6639M7.94043 9.63892L16.6639 17.2268M7.94043 17.2268H16.6639M7.94043 17.2268L16.6639 9.63892M16.6639 17.2268V9.63892" stroke="#17C1BC" stroke-width="0.5"/>
</g>
<defs>
<clipPath id="clip0">
<rect width="14.2748" height="16.0189" fill="white" transform="translate(3.97461 4.58032)"/>
</clipPath>
</defs>
</svg>
