<svg width="23" height="34" viewBox="0 0 23 34" fill="none" xmlns="http://www.w3.org/2000/svg">
<rect x="11" y="24.6354" width="2" height="9" fill="#17C1BC"/>
<path d="M22.5 12.6465C22.5 19.4006 17.5315 24.793 11.5 24.793C5.46852 24.793 0.5 19.4006 0.5 12.6465C0.5 5.89239 5.46852 0.5 11.5 0.5C17.5315 0.5 22.5 5.89239 22.5 12.6465Z" fill="#17C1BC" stroke="#17C1BC"/>
<g clip-path="url(#clip0)">
<path d="M9.03908 18.1983C9.03908 18.5777 8.77701 18.7844 8.5713 18.7844C8.36558 18.7844 8.10352 18.5777 8.10352 18.1983C8.10352 17.8189 8.36558 17.6123 8.5713 17.6123C8.77701 17.6123 9.03908 17.8189 9.03908 18.1983Z" fill="#17C1BC" stroke="white"/>
<path d="M16.2969 18.1983C16.2969 18.5777 16.0348 18.7844 15.8291 18.7844C15.6234 18.7844 15.3613 18.5777 15.3613 18.1983C15.3613 17.8189 15.6234 17.6123 15.8291 17.6123C16.0348 17.6123 16.2969 17.8189 16.2969 18.1983Z" fill="#17C1BC" stroke="white"/>
<mask id="path-5-inside-1" fill="white">
<path d="M6.15187 6.25212H4.94214C4.80834 6.25212 4.7002 6.13076 4.7002 5.98061C4.7002 5.83047 4.80834 5.70911 4.94214 5.70911H6.15187C6.28566 5.70911 6.39381 5.83047 6.39381 5.98061C6.39381 6.13076 6.28566 6.25212 6.15187 6.25212Z"/>
</mask>
<path d="M6.15187 6.25212H4.94214C4.80834 6.25212 4.7002 6.13076 4.7002 5.98061C4.7002 5.83047 4.80834 5.70911 4.94214 5.70911H6.15187C6.28566 5.70911 6.39381 5.83047 6.39381 5.98061C6.39381 6.13076 6.28566 6.25212 6.15187 6.25212Z" fill="#17C1BC"/>
<path d="M6.15187 5.25212H4.94214V7.25212H6.15187V5.25212ZM4.94214 5.25212C5.46589 5.25212 5.7002 5.68997 5.7002 5.98061H3.7002C3.7002 6.57154 4.1508 7.25212 4.94214 7.25212V5.25212ZM5.7002 5.98061C5.7002 6.27126 5.46589 6.70911 4.94214 6.70911V4.70911C4.1508 4.70911 3.7002 5.38968 3.7002 5.98061H5.7002ZM4.94214 6.70911H6.15187V4.70911H4.94214V6.70911ZM6.15187 6.70911C5.62811 6.70911 5.39381 6.27126 5.39381 5.98061H7.39381C7.39381 5.38968 6.94321 4.70911 6.15187 4.70911V6.70911ZM5.39381 5.98061C5.39381 5.68997 5.62811 5.25212 6.15187 5.25212V7.25212C6.94321 7.25212 7.39381 6.57154 7.39381 5.98061H5.39381Z" fill="white" mask="url(#path-5-inside-1)"/>
<mask id="path-7-inside-2" fill="white">
<path d="M6.15112 17.1124C6.01733 17.1124 5.90918 16.991 5.90918 16.8409V5.98061C5.90918 5.83047 6.01733 5.70911 6.15112 5.70911C6.28492 5.70911 6.39307 5.83047 6.39307 5.98061V16.8409C6.39307 16.991 6.28492 17.1124 6.15112 17.1124Z"/>
</mask>
<path d="M6.15112 17.1124C6.01733 17.1124 5.90918 16.991 5.90918 16.8409V5.98061C5.90918 5.83047 6.01733 5.70911 6.15112 5.70911C6.28492 5.70911 6.39307 5.83047 6.39307 5.98061V16.8409C6.39307 16.991 6.28492 17.1124 6.15112 17.1124Z" fill="#17C1BC"/>
<path d="M6.15112 16.1124C6.67488 16.1124 6.90918 16.5502 6.90918 16.8409H4.90918C4.90918 17.4318 5.35978 18.1124 6.15112 18.1124V16.1124ZM6.90918 16.8409V5.98061H4.90918V16.8409H6.90918ZM6.90918 5.98061C6.90918 6.27125 6.67488 6.70911 6.15112 6.70911V4.70911C5.35978 4.70911 4.90918 5.38968 4.90918 5.98061H6.90918ZM6.15112 6.70911C5.62737 6.70911 5.39307 6.27125 5.39307 5.98061H7.39307C7.39307 5.38968 6.94247 4.70911 6.15112 4.70911V6.70911ZM5.39307 5.98061V16.8409H7.39307V5.98061H5.39307ZM5.39307 16.8409C5.39307 16.5502 5.62737 16.1124 6.15112 16.1124V18.1124C6.94247 18.1124 7.39307 17.4318 7.39307 16.8409H5.39307Z" fill="white" mask="url(#path-7-inside-2)"/>
<mask id="path-9-inside-3" fill="white">
<path d="M18.0064 17.1125H6.15112C6.01733 17.1125 5.90918 16.9911 5.90918 16.841C5.90918 16.6908 6.01733 16.5695 6.15112 16.5695H18.0064C18.1402 16.5695 18.2484 16.6908 18.2484 16.841C18.2484 16.9911 18.1402 17.1125 18.0064 17.1125Z"/>
</mask>
<path d="M18.0064 17.1125H6.15112C6.01733 17.1125 5.90918 16.9911 5.90918 16.841C5.90918 16.6908 6.01733 16.5695 6.15112 16.5695H18.0064C18.1402 16.5695 18.2484 16.6908 18.2484 16.841C18.2484 16.9911 18.1402 17.1125 18.0064 17.1125Z" fill="#17C1BC"/>
<path d="M18.0064 16.1125H6.15112V18.1125H18.0064V16.1125ZM6.15112 16.1125C6.67488 16.1125 6.90918 16.5503 6.90918 16.841H4.90918C4.90918 17.4319 5.35978 18.1125 6.15112 18.1125V16.1125ZM6.90918 16.841C6.90918 17.1316 6.67488 17.5695 6.15112 17.5695V15.5695C5.35978 15.5695 4.90918 16.25 4.90918 16.841H6.90918ZM6.15112 17.5695H18.0064V15.5695H6.15112V17.5695ZM18.0064 17.5695C17.4827 17.5695 17.2484 17.1316 17.2484 16.841H19.2484C19.2484 16.25 18.7978 15.5695 18.0064 15.5695V17.5695ZM17.2484 16.841C17.2484 16.5503 17.4827 16.1125 18.0064 16.1125V18.1125C18.7978 18.1125 19.2484 17.4319 19.2484 16.841H17.2484Z" fill="white" mask="url(#path-9-inside-3)"/>
<path d="M7.94043 9.27441V16.8623M7.94043 9.27441H16.6639M7.94043 9.27441L16.6639 16.8623M7.94043 16.8623H16.6639M7.94043 16.8623L16.6639 9.27441M16.6639 16.8623V9.27441" stroke="white" stroke-width="0.5"/>
</g>
<defs>
<clipPath id="clip0">
<rect width="14.2748" height="16.0189" fill="white" transform="translate(3.97461 4.21582)"/>
</clipPath>
</defs>
</svg>
