<svg width="23" height="34" viewBox="0 0 23 34" fill="none" xmlns="http://www.w3.org/2000/svg">
<path d="M22.5 13.4082C22.5 20.1623 17.5315 25.5547 11.5 25.5547C5.46852 25.5547 0.5 20.1623 0.5 13.4082C0.5 6.65411 5.46852 1.26172 11.5 1.26172C17.5315 1.26172 22.5 6.65411 22.5 13.4082Z" stroke="#17C1BC"/>
<path d="M7.16229 16.6382H7.15978C7.03147 16.6382 6.92871 16.7764 6.92871 16.9469C6.92871 17.1174 7.03398 17.2557 7.16229 17.2557C7.2906 17.2557 7.39462 17.1174 7.39462 16.9469C7.39462 16.7764 7.2906 16.6382 7.16229 16.6382Z" fill="#17C1BC"/>
<path d="M9.14959 16.6382H9.14711C9.0188 16.6382 8.91602 16.7764 8.91602 16.9469C8.91602 17.1174 9.02128 17.2557 9.14959 17.2557C9.2779 17.2557 9.38193 17.1174 9.38193 16.9469C9.38193 16.7764 9.2779 16.6382 9.14959 16.6382Z" fill="#17C1BC"/>
<path d="M17.343 16.6382H17.3405C17.2122 16.6382 17.1094 16.7764 17.1094 16.9469C17.1094 17.1174 17.2146 17.2557 17.343 17.2557C17.4713 17.2557 17.5753 17.1174 17.5753 16.9469C17.5753 16.7764 17.4713 16.6382 17.343 16.6382Z" fill="#17C1BC"/>
<path d="M19.8427 12.9051L19.5303 12.49L18.901 9.98105C18.9949 9.94141 19.0629 9.8247 19.0629 9.68683C19.0629 9.51632 18.9589 9.37808 18.8306 9.37808H16.5797V8.03694C16.5797 7.68472 16.3641 7.39819 16.099 7.39819H4.67597C4.41092 7.39819 4.19531 7.68476 4.19531 8.03694V15.2969C4.19531 15.6491 4.41092 15.9357 4.67597 15.9357H4.94028V16.6167C4.94028 16.9689 5.15589 17.2555 5.42094 17.2555H5.95596C6.06488 18.0064 6.56286 18.5754 7.15922 18.5754C7.56758 18.5754 7.92968 18.3084 8.15251 17.8992C8.37537 18.3084 8.73747 18.5754 9.14583 18.5754C9.74219 18.5754 10.2402 18.0064 10.3491 17.2555H16.1373C16.2462 18.0064 16.7442 18.5754 17.3406 18.5754C18.0164 18.5754 18.5662 17.8448 18.5662 16.9467C18.5662 16.9396 18.5659 16.9327 18.5658 16.9256H19.5755C19.8406 16.9256 20.0562 16.6391 20.0562 16.2869V13.5901C20.0562 13.3314 19.9804 13.0881 19.8427 12.9051ZM5.95596 16.638H5.42094C5.41211 16.638 5.40495 16.6285 5.40495 16.6168V15.9357H6.19939C6.0792 16.1368 5.99391 16.3763 5.95596 16.638ZM7.15922 17.958C6.73962 17.958 6.39827 17.5044 6.39827 16.9468C6.39827 16.3913 6.73708 15.9392 7.15448 15.9357H7.16402C7.58143 15.9391 7.92024 16.3913 7.92024 16.9468C7.9202 17.5044 7.57882 17.958 7.15922 17.958ZM9.14586 17.958C8.72626 17.958 8.38488 17.5044 8.38488 16.9468C8.38488 16.3913 8.72369 15.9392 9.14109 15.9357H9.15063C9.56803 15.9391 9.90684 16.3913 9.90684 16.9468C9.90681 17.5044 9.56546 17.958 9.14586 17.958ZM16.1374 16.638H10.3491C10.3112 16.3763 10.2259 16.1368 10.1057 15.9357H14.609C14.7373 15.9357 14.8413 15.7974 14.8413 15.6269C14.8413 15.4564 14.7373 15.3181 14.609 15.3181H4.67597C4.66714 15.3181 4.65999 15.3086 4.65999 15.2969V8.03694C4.65999 8.02521 4.66714 8.0157 4.67597 8.0157H16.099C16.1078 8.0157 16.115 8.02521 16.115 8.03694V15.3182H15.6024C15.4741 15.3182 15.3701 15.4564 15.3701 15.6269C15.3701 15.7975 15.4741 15.9357 15.6024 15.9357H16.3808C16.2606 16.1368 16.1753 16.3763 16.1374 16.638ZM19.0876 12.678H17.5889C17.5801 12.678 17.5729 12.6685 17.5729 12.6568V11.3155H18.7459L19.0876 12.678ZM17.3406 17.958C16.921 17.958 16.5797 17.5044 16.5797 16.9468C16.5797 16.3913 16.9185 15.9392 17.3359 15.9357H17.3406C17.3412 15.9357 17.3417 15.9356 17.3423 15.9356C17.7611 15.9367 18.1016 16.3899 18.1016 16.9468C18.1016 17.5044 17.7602 17.958 17.3406 17.958ZM19.5915 16.287C19.5915 16.2987 19.5844 16.3082 19.5755 16.3082H18.468C18.2807 15.7266 17.846 15.3181 17.3406 15.3181C17.339 15.3181 17.3375 15.3182 17.3358 15.3182H16.5797V10.0169V10.0168C16.5797 10.0051 16.5868 9.99554 16.5956 9.99554H18.4148L18.591 10.698H17.3406C17.2123 10.698 17.1083 10.8363 17.1083 11.0068V12.6568C17.1083 13.009 17.3239 13.2955 17.5889 13.2955H19.4793L19.5141 13.3418C19.564 13.4082 19.5915 13.4963 19.5915 13.5902V14.3282H19.3272C19.1989 14.3282 19.0949 14.4664 19.0949 14.637C19.0949 14.8075 19.1989 14.9457 19.3272 14.9457H19.5915V16.287Z" fill="#17C1BC"/>
<path d="M15.3539 13.9983H5.42081C5.2925 13.9983 5.18848 14.1365 5.18848 14.307C5.18848 14.4776 5.2925 14.6158 5.42081 14.6158H15.3539C15.4822 14.6158 15.5862 14.4776 15.5862 14.307C15.5862 14.1365 15.4822 13.9983 15.3539 13.9983Z" fill="#17C1BC"/>
<rect x="11" y="25" width="2" height="9" fill="#17C1BC"/>
</svg>
