<svg width="481" height="481" viewBox="0 0 481 481" fill="none" xmlns="http://www.w3.org/2000/svg">
<path d="M348 173.2H317.122C303.814 145.021 275.554 127.043 244.5 127H187V173.2H164V196.3H187V219.4H164V242.5H187V358H210V288.7H244.5C275.554 288.657 303.814 270.679 317.122 242.5H348V219.4H324.08C325.307 211.75 325.307 203.95 324.08 196.3H348V173.2ZM210 150.1H244.5C262.503 150.153 279.433 158.71 290.201 173.2H210V150.1ZM244.5 265.6H210V242.5H290.201C279.433 256.99 262.503 265.547 244.5 265.6ZM300.85 219.4H210V196.3H300.85C302.399 203.921 302.399 211.778 300.85 219.4Z" fill="black"/>
<path d="M432.059 24.0591V96.1871C352.562 -9.87589 202.136 -31.4119 96.0731 48.0851C13.7741 109.771 -20.0719 217.039 11.9231 314.787C12.9971 318.08 16.0671 320.308 19.5311 320.307C20.3771 320.308 21.2181 320.17 22.0191 319.899C26.2151 318.524 28.5031 314.008 27.1311 309.811C19.7731 287.293 16.0361 263.749 16.0591 240.059C16.0351 116.347 116.304 16.0391 240.016 16.0161C313.34 16.0021 382.03 51.8751 423.915 112.059H336.059V128.059H448.059V24.0591H432.059Z" fill="black"/>
<path d="M468.195 165.331C466.704 161.172 462.123 159.009 457.964 160.5C453.968 161.933 451.787 166.237 452.995 170.307C491.509 287.899 427.404 414.448 309.812 452.961C215.802 483.751 112.726 449.244 56.2026 368.059H144.059V352.059H32.0586V456.059H48.0586V383.931C127.556 489.994 277.982 511.53 384.044 432.033C466.344 370.347 500.189 263.079 468.195 165.331Z" fill="black"/>
</svg>
