<?xml version="1.0" encoding="UTF-8"?>
<svg width="269px" height="269px" viewBox="0 0 269 269" version="1.1" xmlns="http://www.w3.org/2000/svg" xmlns:xlink="http://www.w3.org/1999/xlink">
    <!-- Generator: Sketch 50.2 (55047) - http://www.bohemiancoding.com/sketch -->
    <title>Group</title>
    <desc>Created with Sketch.</desc>
    <defs>
        <circle id="path-1" cx="134.5" cy="134.5" r="134.5"></circle>
    </defs>
    <g id="Page-1" stroke="none" stroke-width="1" fill="none" fill-rule="evenodd">
        <g id="Group">
            <mask id="mask-2" fill="white">
                <use xlink:href="#path-1"></use>
            </mask>
            <use id="Oval-2" fill="#F9F9F9" xlink:href="#path-1"></use>
            <g id="fisherman" mask="url(#mask-2)">
                <g transform="translate(45.000000, 16.000000)">
                    <path d="M45.2242066,73.1580979 C42.8646976,70.1491679 43.2579491,64.0686336 43.7495135,61.4045532 C38.3426846,61.4045532 30.4768963,61.0787784 24.0865594,58.2579653 C17.6962226,55.4371521 10.4110205,48.8639622 10.9025849,45.1029406 C11.3941493,41.3419191 21.1800251,37.9427547 27.0194496,37.1159614 C30.3376276,36.6461391 40.169389,34.610493 43.6103396,34.2970275 C44.7574812,27.088168 44.8308603,12.6037342 49.1563424,9.21880538 C71.2766443,-8.64658255 100.770222,4.04724572 105.194776,9.21880538 C108.733849,13.3560136 111.584638,26.4619888 112.567767,33.3573829 C115.845179,33.5141156 124.40513,34.6042913 129.408943,35.7064945 C133.675172,36.6461391 143.536797,37.1159614 145.503054,43.2236514 C147.951869,50.8327056 138.889451,55.4390314 130.356994,58.2579653 C125.415752,59.8904098 116.828308,60.3075181 112.567767,61.4045532 C113.059806,64.2253663 112.567767,70.3371908 111.093548,73.1580979 C109.913225,75.4147484 107.652123,76.6058419 106.668995,76.9192134 C106.668995,80.6803289 104.211647,88.2026539 103.228518,91.023467 C102.441636,93.2801175 99.2960031,97.9184852 97.820836,99.9565744 C97.0349018,102.588519 97.4937584,110.142322 97.820836,113.589878 C98.9679775,113.589878 102.142052,113.800359 105.194776,114.530462 C109.127291,115.471047 111.420626,118.788932 112.567767,120.356259 C111.781833,121.484772 111.257561,122.835981 111.093548,124.403308 C112.567767,124.87407 117.975449,128.164706 122.399055,129.575112 C126.823608,130.985519 139.604282,131.455341 143.536797,133.33651 C146.682429,134.840881 146.158157,143.679178 145.503054,147.910398 L138.129114,207.618236 C137.474011,212.94696 136.556298,224.825948 138.129114,229.714918 C140.095372,235.827307 139.554072,237.097648 139.554072,242.269452 C139.554072,244.025712 124.781912,254.309387 88.6414556,253.829056 C78.4978762,253.694241 62.7919674,251.56563 42.6469472,244.673471 C39.0938536,243.457861 27.7435444,238.394572 18.3644958,232.524995 C8.86392686,226.579369 1.34856148,219.826985 0.111745326,218.643923 C3.06112208,212.061712 4.42406987,189.752773 5.8987535,180.820511 C7.37344662,171.888249 15.7300599,138.978136 16.7131886,136.627145 C17.6962226,134.276154 29.9853319,131.455341 34.9009756,129.575112 C38.8334906,128.070741 47.3539081,125.500813 51.1225051,124.403308 C50.3360021,122.147222 50.4671175,119.388425 50.6309407,118.29186 C52.2039467,116.410691 59.4790994,115.000285 62.92005,114.530462 C64.0998045,112.273436 63.4116144,103.873953 62.92005,99.9565744 C61.7730981,98.7021488 58.7909093,95.1606283 56.0381488,91.023467 C53.2853883,86.8862118 51.2864231,79.8967592 50.6309407,76.9192134 C49.6479068,76.9192134 48.1735929,76.9192134 45.2242066,73.1580979 Z" id="Shape" stroke="none" fill="#C4C4C4" fill-rule="nonzero"></path>
                    <path d="M132.952902,115 C135.811723,104.262937 138.049717,95.0767302 138.049717,86.9681635 L138.049717,86.9651667 C138.049717,86.9651667 118.245542,69.4178175 116,56 C116,56 133.966226,71.4824429 140.5,71.4824429 C147.03283,71.4824429 165,56 165,56 C162.755401,69.4079841 142.978588,86.9395063 142.950283,86.9651667 C142.950283,95.0748571 145.188277,104.261063 148.047098,115 L132.952902,115 Z" id="Shape" stroke="none" fill="#C4C4C4" fill-rule="nonzero"></path>
                    <path d="M133.911832,83.006466 L149.531059,83.006466 C153.206445,84.7887343 158.412853,100.68054 160.556286,108.403294 C163.771899,118.354238 171.214811,140.039241 175.256898,147.167937 C180.31067,156.078807 185.363511,168.108953 187.201669,175.238592 C189.038897,182.367288 187.660511,197.51671 183.526284,197.962725 C180.218529,198.31916 166.834876,196.031565 160.556286,194.843449 L149.531059,119.097282 L135.74906,116.869093 C135.289288,116.721049 134.933755,116.33444 133.463229,115.978006 C131.626001,115.532933 128.869229,111.968585 127.950615,110.185468 C127.215352,108.759729 128.434586,106.061952 128.410388,105.284961 C128.386189,104.507028 126.732312,103.82339 127.037586,101.347205 C127.502942,97.5754086 128.899943,98.0468832 128.869229,97.2642353 C128.839446,96.4825304 127.503873,96.9228877 127.503873,93.8036117 C127.503873,90.6843357 128.905527,90.8191774 129.365299,90.0318148 C129.365299,89.1407278 128.008319,89.4407743 129.365299,85.3170688 C129.365299,85.3170688 132.379879,82.8579515 133.911832,83.006466 Z" id="Shape" stroke="none" fill="#C4C4C4" fill-rule="nonzero"></path>
                    <path d="M134.296226,120 C133.600943,122.272664 132.846226,124.632992 132.061321,127.085697 L132.061321,127.087582 L132.060377,127.088525 C131.382075,129.209426 130.681132,131.400082 129.977358,133.666148 C125.904717,140.33332 119.245283,153.952336 116.442453,169.797828 C116.365094,170.452008 116.287736,171.007213 116.219811,171.494549 C116.060377,172.641721 115.95283,173.414672 116.020755,174.235697 C116.006604,174.338443 116,174.422336 116,174.48832 C116,174.983197 116.246226,175.740123 116.641509,176.679918 C116.715094,176.875984 116.796226,177.083361 116.884906,177.302992 C116.95,177.463238 117.026415,177.610287 117.113208,177.742254 C117.428302,178.427541 117.790566,179.176926 118.175472,179.970615 C119.226415,182.141475 120.438679,184.644139 121.273585,187.050656 C121.339623,189.34123 121.49434,191.574303 121.751887,193.720656 C121.871698,194.713238 121.94717,195.589877 121.983019,196.35623 C125.50283,217.576557 138.160377,234.999057 138.160377,234.999057 L143.039623,227.2375 L147.917925,235 C147.917925,232.54541 149.369811,228.987008 151.270755,224.32668 C153.59717,218.622869 156.59717,211.268525 158.436792,202.261762 C153.942453,199.399016 144.777358,195.574795 135.966981,198.346107 C139.691509,195.089344 149.041509,192.512213 159.09717,198.630779 C159.598113,195.489959 159.943396,192.16627 160.066038,188.65877 C160.863208,188.330738 163.516038,186.920574 166,184.909959 C165.992453,184.888279 165.984906,184.867541 165.978302,184.845861 C165.973585,184.833607 165.969811,184.82041 165.966038,184.808156 C165.017925,181.79459 162.356604,180.050738 160.746226,179.376762 C160.477358,179.30418 160.216038,179.226885 159.962264,179.144877 C159.460377,168.138811 157.766981,158.297828 155.633962,149.43623 C156.724528,148.150492 157.646226,146.75918 158.425472,145.328279 C158.436792,145.195369 158.443396,145.064344 158.443396,144.936148 C158.443396,143.434549 153.723585,137.118033 151.364151,134.146885 L151.314151,133.961189 C150.578302,131.589549 149.846226,129.299918 149.137736,127.086639 C148.581132,125.34373 148.038679,123.648893 147.522642,121.999303 C142.763208,121.662787 138.157547,120.873811 134.296226,120 Z M140.600943,215.593279 C140.600943,217.736803 138.962264,219.475 136.941509,219.475 C134.920755,219.475 133.282075,217.736803 133.282075,215.593279 C133.282075,213.449754 134.920755,211.7125 136.941509,211.7125 C138.962264,211.7125 140.600943,213.449754 140.600943,215.593279 Z" id="Shape" stroke="#FFFFFF" stroke-width="5" fill="#FFFFFF" fill-rule="evenodd"></path>
                    <path d="M143.984744,108 C145.094689,113.620926 147.154438,119.828874 149.463602,126.790356 C150.199885,129.009563 150.961936,131.305911 151.726749,133.684104 L151.810501,133.669052 L151.927386,133.647415 L151.778289,133.87037 C154.232869,136.849696 159.14111,143.183704 159.14111,144.688889 C159.14111,144.81683 159.134667,144.948533 159.121782,145.082119 C158.311872,146.516748 157.353785,147.911867 156.219911,149.201622 C158.43796,158.086919 160.198595,167.955289 160.721355,178.991119 C160.984576,179.072963 161.257,179.151044 161.535867,179.224422 C163.210909,179.899874 165.978409,181.648711 166.964106,184.67037 C166.976071,184.705178 166.987115,184.739044 167,184.77197 C164.41657,186.788919 161.658274,188.201911 160.828116,188.532111 C160.701107,192.0486 160.34217,195.381644 159.82125,198.531244 C149.363284,192.395733 139.639759,194.979948 135.765075,198.245259 C144.929025,195.467252 154.459276,199.30077 159.134667,202.171911 C157.221254,211.203022 154.101259,218.57843 151.681652,224.297193 C149.704735,228.970793 148.195357,232.539022 148.195357,235 L143.121453,227.216311 L138.046629,234.999059 C138.046629,234.999059 124.882827,217.529504 121.222584,196.249948 C121.18577,195.481363 121.10662,194.602711 120.982372,193.607407 C120.71455,191.454993 120.553488,189.21603 120.485382,186.918741 C119.616569,184.505741 118.356607,181.996785 117.263228,179.819911 C116.862874,179.024044 116.48553,178.272393 116.156964,177.585652 C116.06769,177.452067 115.987619,177.305311 115.920433,177.144444 C115.828398,176.924311 115.743726,176.716407 115.667336,176.519793 C115.255939,175.57717 115.000081,174.818933 115.000081,174.322222 C115.000081,174.25637 115.007444,174.171704 115.021249,174.068222 C114.951302,173.245074 115.062665,172.470844 115.229249,171.320319 C115.299195,170.832074 115.380186,170.275156 115.460257,169.618519 C118.375014,153.729407 125.301587,140.073615 129.536129,133.388711 C130.26873,131.115881 130.997649,128.919252 131.703559,126.792237 L131.703559,126.791296 L131.703559,126.790356 C134.013644,119.828874 136.072473,113.620926 137.182418,108 L143.984744,108 Z M137,220 C139.208464,220 141,218.20858 141,215.999517 C141,213.79142 139.208464,212 137,212 C134.790568,212 133,213.79142 133,215.999517 C133,218.20858 134.790568,220 137,220 Z" id="Shape" stroke="none" fill="#C4C4C4" fill-rule="evenodd"></path>
                    <path d="M106.347326,65.0658602 C106.347326,62.9312732 106.782664,59.5515566 107,58.1284986 C105.367981,57.0612051 105.041977,62.9312732 105.041977,65.0658602 C105.041977,67.2004471 105.367981,72.5369145 105.041977,78.4070746 C104.780641,83.103129 105.80332,80.3637333 106.347326,78.4070746 L106.347326,65.0658602 Z" id="Shape" stroke="none" fill="#FFFFFF" fill-rule="nonzero"></path>
                    <circle id="Oval" stroke="none" fill="#FFFFFF" fill-rule="nonzero" cx="135.5" cy="215.5" r="2.5"></circle>
                    <path d="M87.6317569,102.470055 C91.761712,101.063927 95.9226418,96.9044245 97.4873316,95 C98.2692072,95.7320654 98.5038637,97.9212308 95.6100793,99.8335648 C87.6317569,105.106545 86.3802867,103.935064 82,103.7883 L87.6317569,102.470055 Z" id="Shape" stroke="none" fill="#FFFFFF" fill-rule="nonzero"></path>
                    <path d="M98.2739102,121.340178 C97.3916721,119.586423 97.0572544,113.290274 97,110.361189 C97.3070917,110.01746 97.8718282,109.612747 97.674691,110.748345 C97.6655823,115.198338 99.2212101,120.768221 100,122.996913 C99.6759922,123.033873 98.8763826,122.753901 98.2739102,121.340178 Z" id="Shape" stroke="none" fill="#FFFFFF" fill-rule="nonzero"></path>
                    <path d="M62.9579734,131.21779 C60.5328181,125.33738 61.2738041,120.804871 61.947492,119.273208 C58.9158458,116.976172 57.9056676,129.839569 60.431871,132.596011 C62.4528338,134.801164 65.6527252,141.784151 67,145 C66.6631055,142.856407 65.3831287,137.098199 62.9579734,131.21779 Z" id="Shape" stroke="none" fill="#FFFFFF" fill-rule="nonzero"></path>
                    <path d="M140.794634,82 C139.61517,82 132.440102,82.33335 129,82.5 C129.818744,82.66665 131.85037,83 133.422988,83 C135.38876,83 142.268963,82 140.794634,82 Z" id="Shape" stroke="none" fill="#FFFFFF" fill-rule="nonzero"></path>
                </g>
            </g>
        </g>
    </g>
</svg>